# Blender v2.77 (sub 0) OBJ File: 'CheapFuelTank.blend'
# www.blender.org
v 0.162563 -0.990225 -0.223749
v 0.000000 -0.520098 -0.507742
v 0.000000 1.153959 -0.507742
v 0.298443 -0.520098 -0.410772
v 0.482891 -0.520098 -0.156901
v 0.482891 -0.520098 0.156901
v 0.482891 1.153959 0.156901
v 0.298443 -0.520098 0.410772
v 0.298443 1.153959 0.410772
v -0.000000 -0.520098 0.507742
v -0.298443 -0.520098 0.410772
v -0.482891 -0.520098 0.156901
v -0.482891 -0.520098 -0.156901
v -0.298443 -0.520098 -0.410772
v -0.000000 1.384751 -0.249579
v 0.146699 1.384751 -0.201914
v 0.237364 1.384751 -0.077124
v 0.237364 1.384751 0.077124
v 0.146699 1.384751 0.201914
v -0.000000 1.384751 0.249579
v -0.146699 1.384751 0.201914
v -0.237364 1.384751 0.077124
v -0.237364 1.384751 -0.077124
v -0.146699 1.384751 -0.201914
v 0.253677 1.442449 -0.349156
v 0.000000 1.442449 -0.431581
v 0.410458 1.442449 -0.133366
v 0.410458 1.442449 0.133366
v 0.253677 1.442449 0.349156
v -0.000000 1.442449 0.431581
v -0.253677 1.442449 0.349156
v -0.410458 1.442449 0.133366
v -0.410458 1.442449 -0.133366
v -0.253677 1.442449 -0.349156
v 0.410458 1.327053 0.133366
v -0.000000 1.327053 0.431581
v -0.000000 1.153959 0.507742
v 0.253677 1.327053 0.349156
v 0.482891 1.153959 -0.156901
v 0.298443 1.153959 -0.410772
v -0.410458 1.327053 0.133366
v -0.482891 1.153959 0.156901
v -0.298443 1.153959 0.410772
v -0.253677 1.327053 0.349156
v -0.482891 1.153959 -0.156901
v -0.410458 1.327053 -0.133366
v 0.000000 1.327053 -0.431581
v -0.298443 1.153959 -0.410772
v -0.253677 1.327053 -0.349156
v 0.410458 1.327053 -0.133366
v 0.253677 1.327053 -0.349156
v -0.000000 1.327053 -0.249579
v 0.000000 1.357462 -0.000000
v 0.146699 1.327053 -0.201914
v 0.237364 1.327053 -0.077124
v 0.237364 1.327053 0.077124
v 0.146699 1.327053 0.201914
v -0.000000 1.327053 0.249579
v -0.146699 1.327053 0.201914
v -0.237364 1.327053 0.077124
v -0.237364 1.327053 -0.077124
v -0.146699 1.327053 -0.201914
v 0.277784 -0.724641 -0.382338
v 0.079102 -1.131870 -0.108874
v 0.000000 -0.724641 -0.472595
v 0.449465 -0.724641 -0.146040
v 0.449465 -0.724641 0.146040
v 0.277784 -0.724641 0.382338
v -0.000000 -0.724641 0.472595
v -0.277784 -0.724641 0.382338
v -0.449465 -0.724641 0.146040
v -0.449465 -0.724641 -0.146040
v -0.277784 -0.724641 -0.382338
v 0.079102 -1.238104 -0.108874
v 0.000000 -0.990225 -0.276569
v 0.263033 -0.990225 -0.085465
v 0.263033 -0.990225 0.085465
v 0.162563 -0.990225 0.223749
v -0.000000 -0.990225 0.276569
v -0.162563 -0.990225 0.223749
v -0.263033 -0.990225 0.085465
v -0.263033 -0.990225 -0.085465
v -0.162563 -0.990225 -0.223749
v 0.000000 -1.131870 -0.134576
v 0.127989 -1.131870 -0.041586
v 0.127989 -1.131870 0.041586
v 0.079102 -1.131870 0.108874
v 0.000000 -1.131870 0.134576
v -0.079102 -1.131870 0.108874
v -0.127989 -1.131870 0.041586
v -0.127989 -1.131870 -0.041586
v -0.079101 -1.131870 -0.108874
v 0.087999 -1.475291 -0.121121
v 0.000000 -1.238104 -0.134576
v 0.127989 -1.238104 -0.041586
v 0.127989 -1.238104 0.041586
v 0.079102 -1.238104 0.108874
v 0.000000 -1.238104 0.134576
v -0.079102 -1.238104 0.108874
v -0.127989 -1.238104 0.041586
v -0.127989 -1.238104 -0.041586
v -0.079101 -1.238104 -0.108874
v 0.087999 -1.266500 -0.121121
v 0.000000 -1.266500 -0.149714
v 0.142386 -1.266500 -0.046264
v 0.142386 -1.266500 0.046264
v 0.087999 -1.266500 0.121121
v -0.000000 -1.266500 0.149714
v -0.087999 -1.266500 0.121121
v -0.142386 -1.266500 0.046264
v -0.142386 -1.266500 -0.046264
v -0.087999 -1.266500 -0.121121
v 0.000000 -1.464736 -0.000000
v 0.000000 -1.475291 -0.149714
v 0.142386 -1.475291 -0.046264
v 0.142386 -1.475291 0.046264
v 0.087999 -1.475291 0.121121
v -0.000000 -1.475291 0.149714
v -0.087999 -1.475291 0.121121
v -0.142386 -1.475291 0.046264
v -0.142386 -1.475291 -0.046264
v -0.087999 -1.475291 -0.121121
v 0.000000 0.872103 -0.507742
v 0.482891 0.872103 0.156901
v 0.298443 0.872103 0.410772
v 0.298443 0.872103 -0.410772
v 0.482891 0.872103 -0.156901
v -0.000000 0.872103 0.507742
v -0.298443 0.872103 0.410772
v -0.482891 0.872103 0.156901
v -0.482891 0.872103 -0.156901
v -0.298443 0.872103 -0.410772
v 0.482891 -0.434687 0.156901
v 0.298443 -0.434687 0.410772
v 0.298443 -0.434687 -0.410772
v 0.482891 -0.434687 -0.156901
v -0.000000 -0.434687 0.507742
v -0.298443 -0.434687 0.410772
v -0.482891 -0.434687 0.156901
v -0.482891 -0.434687 -0.156901
v -0.298443 -0.434687 -0.410772
v 0.000000 -0.434687 -0.507742
v 0.000000 -0.415038 -0.492474
v 0.000000 0.852454 -0.492474
v -0.289469 0.852454 -0.398420
v -0.468370 0.852454 -0.152183
v -0.468370 0.852454 0.152183
v -0.289469 0.852454 0.398419
v -0.000000 0.852454 0.492474
v 0.289469 0.852454 0.398419
v 0.468370 0.852454 0.152183
v 0.468370 0.852454 -0.152183
v 0.289469 0.852454 -0.398419
v 0.468370 -0.415038 0.152183
v 0.289469 -0.415038 0.398419
v 0.289469 -0.415038 -0.398419
v 0.468370 -0.415038 -0.152183
v -0.000000 -0.415038 0.492474
v -0.289469 -0.415038 0.398419
v -0.468370 -0.415038 0.152183
v -0.468370 -0.415038 -0.152183
v -0.289469 -0.415038 -0.398420
vt 0.2604 0.2276
vt 0.1766 0.1629
vt 0.1801 0.2276
vt 0.4532 0.9433
vt 0.5018 0.9122
vt 0.4487 0.9255
vt 0.8063 0.6789
vt 0.9007 0.5897
vt 0.8063 0.5897
vt 0.6165 0.1492
vt 0.5286 0.0845
vt 0.6165 0.0845
vt 0.5212 0.7574
vt 0.4409 0.6682
vt 0.5212 0.6682
vt 0.0808 0.2276
vt 0.0094 0.1629
vt 0.0004 0.2276
vt 0.8871 0.7650
vt 0.9289 0.7374
vt 0.9365 0.7731
vt 0.4409 0.7574
vt 0.3416 0.6682
vt 0.0842 0.1629
vt 0.3525 0.8575
vt 0.2613 0.7657
vt 0.3525 0.7582
vt 0.3416 0.7574
vt 0.2613 0.6682
vt 0.5212 0.2276
vt 0.4375 0.1629
vt 0.5122 0.1629
vt 0.3534 0.8495
vt 0.4478 0.7582
vt 0.4478 0.8495
vt 0.7110 0.6789
vt 0.6165 0.5897
vt 0.7110 0.5897
vt 0.7110 0.1492
vt 0.7044 0.0845
vt 0.1678 0.8638
vt 0.2591 0.7760
vt 0.1678 0.7835
vt 0.6165 0.6789
vt 0.5221 0.5897
vt 0.3416 0.2276
vt 0.4409 0.2276
vt 0.0756 0.8386
vt 0.1669 0.7777
vt 0.0756 0.7582
vt 0.0004 0.7574
vt 0.0808 0.6682
vt 0.0004 0.6682
vt 0.8063 0.1492
vt 0.7184 0.0845
vt 0.7118 0.1492
vt 0.8772 0.9384
vt 0.7969 0.8471
vt 0.7827 0.9384
vt 0.0808 0.7574
vt 0.1801 0.6682
vt 0.8942 0.0845
vt 0.8063 0.0845
vt 0.5107 0.9476
vt 0.5107 0.8535
vt 0.1801 0.7574
vt 0.2604 0.6682
vt 0.2613 0.2276
vt 0.3450 0.1629
vt 0.4534 0.8497
vt 0.5044 0.8173
vt 0.4487 0.8320
vt 0.7118 0.6789
vt 0.7118 0.5897
vt 0.2005 0.8647
vt 0.2005 0.9588
vt 0.1916 0.9001
vt 0.1487 0.8638
vt 0.1304 0.8243
vt 0.1487 0.8243
vt 0.3398 0.8584
vt 0.3398 0.9517
vt 0.3322 0.8941
vt 0.2408 0.7977
vt 0.2226 0.7582
vt 0.2408 0.7582
vt 0.1304 0.7777
vt 0.1430 0.8690
vt 0.1385 0.8867
vt 0.2043 0.9313
vt 0.2591 0.8647
vt 0.2591 0.9491
vt 0.4007 0.9460
vt 0.4471 0.9642
vt 0.4471 0.9460
vt 0.9016 0.4140
vt 0.9563 0.3474
vt 0.9563 0.4318
vt 0.2591 0.8443
vt 0.2226 0.8443
vt 0.9563 0.4993
vt 0.9016 0.4327
vt 0.9563 0.4505
vt 0.9060 0.0048
vt 0.9547 0.0358
vt 0.9636 0.0004
vt 0.9374 0.6976
vt 0.9921 0.7642
vt 0.9374 0.7464
vt 0.2226 0.7977
vt 0.9016 0.5357
vt 0.9563 0.6023
vt 0.9016 0.5845
vt 0.8780 0.9424
vt 0.9268 0.9607
vt 0.9268 0.9424
vt 0.2654 0.8798
vt 0.9524 0.7740
vt 0.8721 0.8288
vt 0.8579 0.7740
vt 0.9563 0.2472
vt 0.9016 0.3391
vt 0.9563 0.3465
vt 0.7827 0.9393
vt 0.8772 0.9940
vt 0.8772 0.9393
vt 0.9365 0.6798
vt 0.8621 0.7517
vt 0.8579 0.6966
vt 0.6520 0.8164
vt 0.7271 0.8408
vt 0.6984 0.8802
vt 0.7271 0.7920
vt 0.6984 0.7525
vt 0.6520 0.7374
vt 0.6055 0.7525
vt 0.5769 0.7920
vt 0.5769 0.8408
vt 0.6055 0.8802
vt 0.6520 0.8953
vt 0.7819 0.8586
vt 0.7322 0.7059
vt 0.5221 0.7742
vt 0.5717 0.7059
vt 0.5221 0.8586
vt 0.7322 0.9268
vt 0.6520 0.9529
vt 0.9636 0.0946
vt 0.0801 0.9544
vt 0.1288 0.9234
vt 0.1377 0.9588
vt 0.3998 0.9460
vt 0.3534 0.9642
vt 0.3534 0.9460
vt 0.1377 0.8647
vt 0.5137 0.8526
vt 0.5137 0.7582
vt 0.2904 0.8665
vt 0.2866 0.8844
vt 0.9430 0.9415
vt 0.9430 0.8471
vt 0.9337 0.8824
vt 0.8827 0.8501
vt 0.4183 0.0789
vt 0.1034 0.0789
vt 0.8063 0.0004
vt 0.7548 0.0004
vt 0.6165 0.0004
vt 0.2703 0.1629
vt 0.3642 0.0789
vt 0.2514 0.1629
vt 0.1575 0.0789
vt 0.4620 0.0789
vt 0.0596 0.0789
vt 0.6680 0.0004
vt 0.4044 0.0340
vt 0.1173 0.0340
vt 0.7827 0.7630
vt 0.8358 0.7881
vt 0.8276 0.7630
vt 0.8358 0.7380
vt 0.7994 0.7116
vt 0.0004 0.8415
vt 0.0535 0.8665
vt 0.0454 0.8415
vt 0.0609 0.7582
vt 0.0535 0.8164
vt 0.0748 0.8010
vt 0.8571 0.7225
vt 0.8432 0.6798
vt 0.8432 0.8463
vt 0.7994 0.8145
vt 0.0609 0.9247
vt 0.0171 0.8929
vt 0.0171 0.7900
vt 0.0255 0.9256
vt 0.0004 0.9592
vt 0.0004 0.9256
vt 0.3781 0.0340
vt 0.4044 0.0004
vt 0.1436 0.0340
vt 0.1173 0.0004
vt 0.9439 0.9731
vt 0.9775 0.9481
vt 0.9439 0.9481
vt 0.9775 0.9230
vt 0.9439 0.9230
vt 0.0505 0.9256
vt 0.0255 0.9592
vt 0.3568 0.0340
vt 0.3781 0.0004
vt 0.1649 0.0340
vt 0.1436 0.0004
vt 0.4257 0.0004
vt 0.4257 0.0340
vt 0.0960 0.0004
vt 0.0960 0.0340
vt 0.9530 0.1713
vt 0.9782 0.1803
vt 0.9743 0.1713
vt 0.9544 0.6783
vt 0.9294 0.6693
vt 0.9573 0.6693
vt 0.9267 0.1705
vt 0.9545 0.1615
vt 0.9530 0.1705
vt 0.9267 0.1713
vt 0.9545 0.1803
vt 0.9717 0.9222
vt 0.9996 0.9132
vt 0.9717 0.9132
vt 0.9439 0.9132
vt 0.9467 0.9222
vt 0.9294 0.6783
vt 0.9016 0.6693
vt 0.9054 0.1705
vt 0.9252 0.1615
vt 0.9016 0.1803
vt 0.9252 0.1803
vt 0.9782 0.1615
vt 0.9743 0.1705
vt 0.9782 0.0954
vt 0.9782 0.2464
vt 0.9573 0.6032
vt 0.9545 0.0954
vt 0.9545 0.2464
vt 0.9717 0.8471
vt 0.9439 0.8471
vt 0.9294 0.6032
vt 0.9016 0.1615
vt 0.9252 0.0954
vt 0.9252 0.2464
vt 0.3985 0.8978
vt 0.4263 0.9361
vt 0.4435 0.9124
vt 0.4435 0.8831
vt 0.4263 0.8594
vt 0.3985 0.8504
vt 0.3706 0.8594
vt 0.3534 0.8831
vt 0.3534 0.9124
vt 0.3706 0.9361
vt 0.3985 0.9451
vt 0.0823 0.6620
vt 0.7110 0.1762
vt 0.6165 0.1824
vt 0.6165 0.1762
vt 0.8063 0.5835
vt 0.1786 0.6620
vt 0.2613 0.2547
vt 0.3431 0.2609
vt 0.2652 0.2609
vt 0.5173 0.6620
vt 0.7147 0.5835
vt 0.4409 0.2547
vt 0.3416 0.2547
vt 0.4394 0.6620
vt 0.7118 0.1762
vt 0.8063 0.1824
vt 0.8063 0.1762
vt 0.9007 0.1492
vt 0.5212 0.2547
vt 0.5221 0.1492
vt 0.0004 0.2547
vt 0.0808 0.2547
vt 0.1801 0.2547
vt 0.7147 0.1824
vt 0.2565 0.2609
vt 0.1786 0.2609
vt 0.0823 0.2609
vt 0.0043 0.6620
vt 0.0043 0.2609
vt 0.6165 0.5835
vt 0.5249 0.1824
vt 0.7081 0.5835
vt 0.7081 0.1824
vt 0.3431 0.6620
vt 0.4394 0.2609
vt 0.5173 0.2609
vt 0.8979 0.1824
vt 0.5221 0.1762
vt 0.9007 0.1762
vt 0.2604 0.2547
vt 0.9007 0.6789
vt 0.8833 0.7472
vt 0.2613 0.8501
vt 0.2613 0.7574
vt 0.3676 0.7582
vt 0.5221 0.6789
vt 0.1669 0.8460
vt 0.8772 0.8471
vt 0.2604 0.7574
vt 0.1304 0.8638
vt 0.2043 0.8825
vt 0.4007 0.9642
vt 0.9016 0.3652
vt 0.9016 0.5171
vt 0.9016 0.0225
vt 0.9921 0.6798
vt 0.9563 0.5179
vt 0.8780 0.9607
vt 0.2613 0.9350
vt 0.9524 0.8288
vt 0.9016 0.2547
vt 0.7969 0.9940
vt 0.7819 0.7742
vt 0.6520 0.6798
vt 0.5717 0.9268
vt 0.0756 0.9367
vt 0.3998 0.9642
vt 0.8780 0.8677
vt 0.8577 0.0004
vt 0.5651 0.0004
vt 0.3204 0.0789
vt 0.2012 0.0789
vt 0.8571 0.8035
vt 0.0748 0.8820
vt 0.9775 0.9731
vt 0.0505 0.9592
vt 0.3568 0.0004
vt 0.1649 0.0004
vt 0.9968 0.9222
vt 0.9044 0.6783
vt 0.9054 0.1713
vt 0.9996 0.8471
vt 0.9016 0.6032
vt 0.9016 0.0954
vt 0.9016 0.2464
vt 0.8979 0.5835
vt 0.2565 0.6620
vt 0.5249 0.5835
vt 0.2652 0.6620
vn -0.7984 -0.1613 -0.5801
vn -0.3090 0.0000 -0.9511
vn 0.3090 0.0000 -0.9511
vn -0.3050 -0.1613 0.9386
vn 0.8090 0.0000 -0.5878
vn -0.7984 -0.1613 0.5801
vn 0.8090 0.0000 0.5878
vn 1.0000 0.0000 0.0000
vn -0.9869 -0.1613 0.0000
vn 0.9699 0.2435 0.0000
vn 0.7984 -0.1613 -0.5801
vn 0.2997 0.2435 0.9224
vn 0.3090 0.0000 0.9511
vn 0.3050 -0.1613 0.9386
vn -0.7847 0.2435 0.5701
vn -0.3090 0.0000 0.9511
vn 0.9869 -0.1613 0.0000
vn -0.7847 0.2435 -0.5701
vn -0.8090 0.0000 0.5878
vn -0.3050 -0.1613 -0.9386
vn 0.2997 0.2435 -0.9224
vn -1.0000 0.0000 0.0000
vn 0.3050 -0.1613 -0.9386
vn -0.8090 0.0000 -0.5878
vn 0.7984 -0.1613 0.5801
vn -0.0977 0.9487 0.3008
vn -0.3162 0.9487 0.0000
vn -0.0977 0.9487 -0.3008
vn 0.2558 0.9487 -0.1859
vn 0.2558 0.9487 0.1859
vn 0.7463 0.3860 0.5422
vn -0.2851 0.3860 0.8773
vn -0.9225 0.3860 0.0000
vn -0.2851 0.3860 -0.8773
vn 0.7463 0.3860 -0.5422
vn 0.0393 0.9919 -0.1209
vn 0.1028 0.9919 -0.0747
vn 0.1271 0.9919 0.0000
vn 0.1028 0.9919 0.0747
vn 0.0393 0.9919 0.1209
vn -0.0393 0.9919 0.1209
vn -0.1028 0.9919 0.0747
vn -0.1271 0.9919 0.0000
vn -0.1028 0.9919 -0.0747
vn -0.0393 0.9919 -0.1209
vn 0.0000 1.0000 0.0000
vn 0.8185 -0.5745 0.0000
vn -0.8185 -0.5745 0.0000
vn 0.2529 -0.5745 -0.7784
vn -0.2529 -0.5745 -0.7784
vn -0.2529 -0.5745 0.7784
vn 0.6622 -0.5745 0.4811
vn -0.6622 -0.5745 -0.4811
vn 0.6622 -0.5745 -0.4811
vn -0.6622 -0.5745 0.4811
vn 0.2529 -0.5745 0.7784
vn 0.7238 -0.6900 0.0000
vn -0.7238 -0.6900 0.0000
vn 0.2237 -0.6900 -0.6883
vn -0.2237 -0.6900 -0.6883
vn -0.2237 -0.6900 0.6883
vn 0.5855 -0.6900 0.4254
vn -0.5855 -0.6900 -0.4254
vn 0.5855 -0.6900 -0.4254
vn -0.5855 -0.6900 0.4254
vn 0.2237 -0.6900 0.6883
vn -0.7216 0.4522 0.5243
vn 0.2756 0.4522 0.8483
vn 0.8919 0.4522 0.0000
vn -0.8919 0.4522 0.0000
vn 0.2756 0.4522 -0.8483
vn -0.2756 0.4522 -0.8483
vn -0.2756 0.4522 0.8483
vn 0.7216 0.4522 0.5243
vn -0.7216 0.4522 -0.5243
vn 0.7216 0.4522 -0.5243
vn -0.0228 -0.9973 0.0703
vn -0.0598 -0.9973 0.0435
vn -0.0739 -0.9973 0.0000
vn -0.0598 -0.9973 -0.0435
vn -0.0228 -0.9973 -0.0703
vn 0.0228 -0.9973 -0.0703
vn 0.0598 -0.9973 -0.0435
vn 0.0739 -0.9973 0.0000
vn 0.0598 -0.9973 0.0435
vn 0.0228 -0.9973 0.0703
vn -0.8042 -0.5943 0.0000
vn 0.2485 0.5943 0.7648
vn 0.2485 -0.5943 -0.7648
vn -0.6506 -0.5943 -0.4727
vn 0.6506 0.5944 0.4727
vn 0.6506 -0.5944 -0.4727
vn -0.2485 -0.5943 -0.7648
vn 0.8042 0.5943 0.0000
vn 0.8042 -0.5944 0.0000
vn -0.2485 0.5943 -0.7648
vn -0.2485 0.5943 0.7648
vn -0.6506 -0.5943 0.4727
vn -0.6506 0.5943 0.4727
vn -0.2485 -0.5943 0.7648
vn -0.8042 0.5943 0.0000
vn 0.2485 -0.5943 0.7648
vn 0.2485 0.5943 -0.7648
vn -0.6506 0.5943 -0.4727
vn 0.6506 -0.5943 0.4727
vn 0.6506 0.5943 -0.4727
vn 0.6506 0.5943 0.4727
vn 0.6506 -0.5943 -0.4727
vn 0.8042 -0.5943 0.0000
s off
f 14/1/1 72/2/1 13/3/1
f 17/4/2 50/5/2 55/6/2
f 3/7/3 126/8/3 123/9/3
f 10/10/4 70/11/4 69/12/4
f 40/13/5 127/14/5 126/15/5
f 12/16/6 70/17/6 11/18/6
f 16/19/7 51/20/7 25/21/7
f 39/22/8 124/23/8 127/14/8
f 13/3/9 71/24/9 12/16/9
f 39/25/10 28/26/10 7/27/10
f 7/28/7 125/29/7 124/23/7
f 4/30/11 66/31/11 63/32/11
f 9/33/12 30/34/12 37/35/12
f 9/36/13 128/37/13 125/38/13
f 8/39/14 69/12/14 68/40/14
f 43/41/15 32/42/15 42/43/15
f 37/44/16 129/45/16 128/37/16
f 6/46/17 66/31/17 5/47/17
f 45/48/18 34/49/18 48/50/18
f 43/51/19 130/52/19 129/53/19
f 2/54/20 73/55/20 14/56/20
f 3/57/21 25/58/21 40/59/21
f 42/60/22 131/61/22 130/52/22
f 2/54/23 63/62/23 65/63/23
f 27/64/2 39/65/2 50/5/2
f 45/66/24 132/67/24 131/61/24
f 8/68/25 67/69/25 6/46/25
f 15/70/22 47/71/22 52/72/22
f 48/73/2 123/9/2 132/74/2
f 33/75/16 45/76/16 46/77/16
f 23/78/7 62/79/7 24/80/7
f 29/81/5 9/82/5 38/83/5
f 21/84/5 60/85/5 22/86/5
f 24/80/5 49/87/5 34/49/5
f 48/50/5 34/49/5 49/87/5
f 23/88/16 46/77/16 61/89/16
f 15/90/26 25/91/26 26/92/26
f 19/93/2 58/94/2 20/95/2
f 17/96/27 28/97/27 27/98/27
f 31/99/7 43/41/7 44/100/7
f 20/101/28 29/102/28 19/103/28
f 22/104/2 41/105/2 32/106/2
f 22/107/29 31/108/29 21/109/29
f 21/84/7 44/100/7 59/110/7
f 24/111/30 33/112/30 23/113/30
f 17/114/22 56/115/22 18/116/22
f 9/82/31 35/117/31 38/83/31
f 37/118/32 44/119/32 43/120/32
f 42/121/33 46/122/33 45/123/33
f 48/124/34 47/125/34 3/126/34
f 40/127/35 50/128/35 39/129/35
f 53/130/36 54/131/36 52/132/36
f 53/130/37 55/133/37 54/131/37
f 53/130/38 56/134/38 55/133/38
f 53/130/39 57/135/39 56/134/39
f 53/130/40 58/136/40 57/135/40
f 53/130/41 59/137/41 58/136/41
f 53/130/42 60/138/42 59/137/42
f 53/130/43 61/139/43 60/138/43
f 53/130/44 62/140/44 61/139/44
f 53/130/45 52/132/45 62/140/45
f 55/133/46 51/141/46 54/131/46
f 57/135/46 35/142/46 56/134/46
f 58/136/46 44/143/46 36/144/46
f 61/139/46 41/145/46 60/138/46
f 62/140/46 47/146/46 49/147/46
f 42/148/2 32/106/2 41/105/2
f 18/149/16 35/150/16 28/151/16
f 15/152/16 54/153/16 16/154/16
f 7/155/16 28/151/16 35/150/16
f 26/156/22 3/157/22 47/71/22
f 19/158/5 38/83/5 57/159/5
f 37/160/22 30/161/22 36/162/22
f 20/163/22 36/162/22 30/161/22
f 40/127/7 25/21/7 51/20/7
f 67/69/47 76/164/47 66/31/47
f 72/2/48 81/165/48 71/24/48
f 63/62/49 75/166/49 65/63/49
f 65/63/50 83/167/50 73/55/50
f 70/11/51 79/168/51 69/12/51
f 68/169/52 77/170/52 67/69/52
f 73/171/53 82/172/53 72/2/53
f 66/31/54 1/173/54 63/32/54
f 71/24/55 80/174/55 70/17/55
f 69/12/56 78/175/56 68/40/56
f 77/170/57 85/176/57 76/164/57
f 82/172/58 90/177/58 81/165/58
f 75/178/59 64/179/59 84/180/59
f 75/178/60 92/181/60 83/182/60
f 79/183/61 89/184/61 88/185/61
f 77/186/62 87/187/62 86/188/62
f 83/182/63 91/189/63 82/190/63
f 76/191/64 64/179/64 1/192/64
f 81/193/65 89/184/65 80/194/65
f 79/183/66 87/187/66 78/195/66
f 88/196/13 97/197/13 87/198/13
f 86/199/8 95/200/8 85/176/8
f 91/201/22 100/202/22 90/177/22
f 64/203/3 94/204/3 84/205/3
f 84/205/2 102/206/2 92/207/2
f 89/208/16 98/209/16 88/196/16
f 87/210/7 96/211/7 86/199/7
f 92/212/24 101/213/24 91/201/24
f 85/176/5 74/214/5 64/215/5
f 90/177/19 99/216/19 89/217/19
f 100/218/67 109/219/67 99/220/67
f 97/221/68 108/222/68 107/223/68
f 96/224/69 105/225/69 95/226/69
f 101/227/70 110/228/70 100/218/70
f 94/229/71 103/230/71 104/231/71
f 94/229/72 112/232/72 102/233/72
f 98/234/73 109/235/73 108/222/73
f 97/236/74 106/237/74 96/224/74
f 101/227/75 112/238/75 111/239/75
f 95/226/76 103/240/76 74/241/76
f 105/225/5 93/242/5 103/240/5
f 110/228/19 119/243/19 109/219/19
f 108/222/13 117/244/13 107/223/13
f 106/237/8 115/245/8 105/225/8
f 111/239/22 120/246/22 110/228/22
f 103/230/3 114/247/3 104/231/3
f 104/231/2 122/248/2 112/232/2
f 109/235/16 118/249/16 108/222/16
f 107/250/7 116/251/7 106/237/7
f 112/238/24 121/252/24 111/239/24
f 113/253/77 114/254/77 93/255/77
f 113/253/78 93/255/78 115/256/78
f 113/253/79 115/256/79 116/257/79
f 113/253/80 116/257/80 117/258/80
f 113/253/81 117/258/81 118/259/81
f 113/253/82 118/259/82 119/260/82
f 113/253/83 119/260/83 120/261/83
f 113/253/84 120/261/84 121/262/84
f 113/253/85 121/262/85 122/263/85
f 113/253/86 122/263/86 114/254/86
f 131/61/87 147/264/87 130/52/87
f 134/265/88 158/266/88 137/267/88
f 126/8/89 144/268/89 123/9/89
f 132/67/90 146/269/90 131/61/90
f 134/270/91 154/271/91 155/272/91
f 127/14/92 153/273/92 126/15/92
f 123/9/93 145/274/93 132/74/93
f 136/275/94 154/271/94 133/276/94
f 124/23/95 152/277/95 127/14/95
f 141/278/96 143/279/96 142/280/96
f 142/280/3 4/281/3 2/54/3
f 135/282/5 5/47/5 4/30/5
f 136/275/8 6/46/8 5/47/8
f 133/276/7 8/68/7 6/46/7
f 134/265/13 10/10/13 8/39/13
f 137/267/16 11/283/16 10/10/16
f 138/284/19 12/16/19 11/18/19
f 139/285/22 13/3/22 12/16/22
f 140/286/24 14/1/24 13/3/24
f 141/278/2 2/54/2 14/56/2
f 145/274/2 143/279/2 162/287/2
f 146/269/24 162/288/24 161/289/24
f 147/264/22 161/289/22 160/290/22
f 148/291/19 160/290/19 159/292/19
f 149/293/16 159/294/16 158/266/16
f 150/295/13 158/266/13 155/296/13
f 151/297/7 155/272/7 154/271/7
f 152/277/8 154/271/8 157/298/8
f 153/273/5 157/298/5 156/299/5
f 144/268/3 156/300/3 143/279/3
f 137/267/97 159/294/97 138/301/97
f 130/52/98 148/291/98 129/53/98
f 139/285/99 159/292/99 160/290/99
f 129/45/100 149/293/100 128/37/100
f 139/285/101 161/289/101 140/286/101
f 125/38/102 149/293/102 150/295/102
f 142/280/103 156/300/103 135/302/103
f 140/286/104 162/288/104 141/303/104
f 125/29/105 151/297/105 124/23/105
f 135/282/106 157/298/106 136/275/106
f 14/1/1 73/171/1 72/2/1
f 17/4/2 27/64/2 50/5/2
f 3/7/3 40/304/3 126/8/3
f 10/10/4 11/283/4 70/11/4
f 40/13/5 39/22/5 127/14/5
f 12/16/6 71/24/6 70/17/6
f 16/19/7 54/305/7 51/20/7
f 39/22/8 7/28/8 124/23/8
f 13/3/9 72/2/9 71/24/9
f 39/25/10 27/306/10 28/26/10
f 7/28/7 9/307/7 125/29/7
f 4/30/11 5/47/11 66/31/11
f 9/33/12 29/308/12 30/34/12
f 9/36/13 37/44/13 128/37/13
f 8/39/14 10/10/14 69/12/14
f 43/41/15 31/99/15 32/42/15
f 37/44/16 43/309/16 129/45/16
f 6/46/17 67/69/17 66/31/17
f 45/48/18 33/310/18 34/49/18
f 43/51/19 42/60/19 130/52/19
f 2/54/20 65/63/20 73/55/20
f 3/57/21 26/311/21 25/58/21
f 42/60/22 45/66/22 131/61/22
f 2/54/23 4/281/23 63/62/23
f 45/66/24 48/312/24 132/67/24
f 8/68/25 68/169/25 67/69/25
f 15/70/22 26/156/22 47/71/22
f 48/73/2 3/7/2 123/9/2
f 23/78/7 61/313/7 62/79/7
f 21/84/5 59/110/5 60/85/5
f 24/80/5 62/79/5 49/87/5
f 23/88/16 33/75/16 46/77/16
f 15/90/26 16/314/26 25/91/26
f 19/93/2 57/315/2 58/94/2
f 17/96/27 18/316/27 28/97/27
f 20/101/28 30/317/28 29/102/28
f 22/104/2 60/318/2 41/105/2
f 22/107/29 32/319/29 31/108/29
f 21/84/7 31/99/7 44/100/7
f 24/111/30 34/320/30 33/112/30
f 17/114/22 55/321/22 56/115/22
f 9/82/31 7/322/31 35/117/31
f 37/118/32 36/323/32 44/119/32
f 42/121/33 41/324/33 46/122/33
f 48/124/34 49/325/34 47/125/34
f 40/127/35 51/20/35 50/128/35
f 55/133/46 50/326/46 51/141/46
f 57/135/46 38/327/46 35/142/46
f 58/136/46 59/137/46 44/143/46
f 61/139/46 46/328/46 41/145/46
f 62/140/46 52/132/46 47/146/46
f 18/149/16 56/329/16 35/150/16
f 15/152/16 52/330/16 54/153/16
f 19/158/5 29/81/5 38/83/5
f 20/163/22 58/331/22 36/162/22
f 67/69/47 77/170/47 76/164/47
f 72/2/48 82/172/48 81/165/48
f 63/62/49 1/332/49 75/166/49
f 65/63/50 75/166/50 83/167/50
f 70/11/51 80/333/51 79/168/51
f 68/169/52 78/334/52 77/170/52
f 73/171/53 83/335/53 82/172/53
f 66/31/54 76/164/54 1/173/54
f 71/24/55 81/165/55 80/174/55
f 69/12/56 79/168/56 78/175/56
f 77/170/57 86/199/57 85/176/57
f 82/172/58 91/201/58 90/177/58
f 75/178/59 1/192/59 64/179/59
f 75/178/60 84/180/60 92/181/60
f 79/183/61 80/194/61 89/184/61
f 77/186/62 78/195/62 87/187/62
f 83/182/63 92/181/63 91/189/63
f 76/191/64 85/336/64 64/179/64
f 81/193/65 90/337/65 89/184/65
f 79/183/66 88/185/66 87/187/66
f 88/196/13 98/209/13 97/197/13
f 86/199/8 96/211/8 95/200/8
f 91/201/22 101/213/22 100/202/22
f 64/203/3 74/338/3 94/204/3
f 84/205/2 94/204/2 102/206/2
f 89/208/16 99/339/16 98/209/16
f 87/210/7 97/340/7 96/211/7
f 92/212/24 102/341/24 101/213/24
f 85/176/5 95/200/5 74/214/5
f 90/177/19 100/202/19 99/216/19
f 100/218/67 110/228/67 109/219/67
f 97/221/68 98/234/68 108/222/68
f 96/224/69 106/237/69 105/225/69
f 101/227/70 111/239/70 110/228/70
f 94/229/71 74/342/71 103/230/71
f 94/229/72 104/231/72 112/232/72
f 98/234/73 99/343/73 109/235/73
f 97/236/74 107/250/74 106/237/74
f 101/227/75 102/344/75 112/238/75
f 95/226/76 105/225/76 103/240/76
f 105/225/5 115/245/5 93/242/5
f 110/228/19 120/246/19 119/243/19
f 108/222/13 118/249/13 117/244/13
f 106/237/8 116/251/8 115/245/8
f 111/239/22 121/252/22 120/246/22
f 103/230/3 93/345/3 114/247/3
f 104/231/2 114/247/2 122/248/2
f 109/235/16 119/346/16 118/249/16
f 107/250/7 117/347/7 116/251/7
f 112/238/24 122/348/24 121/252/24
f 131/61/87 146/269/87 147/264/87
f 134/265/88 155/296/88 158/266/88
f 126/8/89 153/349/89 144/268/89
f 132/67/90 145/350/90 146/269/90
f 134/270/107 133/276/107 154/271/107
f 127/14/108 152/277/108 153/273/108
f 123/9/93 144/268/93 145/274/93
f 136/275/94 157/298/94 154/271/94
f 124/23/109 151/297/109 152/277/109
f 141/278/96 162/287/96 143/279/96
f 142/280/3 135/302/3 4/281/3
f 135/282/5 136/275/5 5/47/5
f 136/275/8 133/276/8 6/46/8
f 133/276/7 134/270/7 8/68/7
f 134/265/13 137/267/13 10/10/13
f 137/267/16 138/301/16 11/283/16
f 138/284/19 139/285/19 12/16/19
f 139/285/22 140/286/22 13/3/22
f 140/286/24 141/303/24 14/1/24
f 141/278/2 142/280/2 2/54/2
f 145/274/2 144/268/2 143/279/2
f 146/269/24 145/350/24 162/288/24
f 147/264/22 146/269/22 161/289/22
f 148/291/19 147/264/19 160/290/19
f 149/293/16 148/351/16 159/294/16
f 150/295/13 149/293/13 158/266/13
f 151/297/7 150/352/7 155/272/7
f 152/277/8 151/297/8 154/271/8
f 153/273/5 152/277/5 157/298/5
f 144/268/3 153/349/3 156/300/3
f 137/267/97 158/266/97 159/294/97
f 130/52/98 147/264/98 148/291/98
f 139/285/99 138/284/99 159/292/99
f 129/45/100 148/351/100 149/293/100
f 139/285/101 160/290/101 161/289/101
f 125/38/102 128/37/102 149/293/102
f 142/280/103 143/279/103 156/300/103
f 140/286/104 161/289/104 162/288/104
f 125/29/105 150/352/105 151/297/105
f 135/282/106 156/299/106 157/298/106
