# Blender v2.77 (sub 0) OBJ File: ''
# www.blender.org
v 0.500000 -1.000000 0.000000
v 0.500000 1.000000 0.000000
v 0.000000 1.000000 0.000000
v 0.000000 -1.000000 0.000000
v 0.353553 -1.000000 0.353553
v 0.353553 1.000000 0.353553
v 0.000000 1.000000 0.000000
v 0.000000 -1.000000 0.000000
v 0.000000 -1.000000 0.500000
v 0.000000 1.000000 0.500000
v 0.000000 1.000000 0.000000
v 0.000000 -1.000000 0.000000
v -0.353553 -1.000000 0.353553
v -0.353553 1.000000 0.353553
v 0.000000 1.000000 0.000000
v 0.000000 -1.000000 0.000000
v -0.500000 -1.000000 0.000000
v -0.500000 1.000000 0.000000
v 0.000000 1.000000 0.000000
v 0.000000 -1.000000 0.000000
v -0.353553 -1.000000 -0.353553
v -0.353553 1.000000 -0.353553
v 0.000000 1.000000 0.000000
v 0.000000 -1.000000 0.000000
v 0.000000 -1.000000 -0.500000
v 0.000000 1.000000 -0.500000
v 0.000000 1.000000 0.000000
v 0.000000 -1.000000 0.000000
v 0.353553 -1.000000 -0.353553
v 0.353553 1.000000 -0.353553
v 0.000000 1.000000 0.000000
v 0.000000 -1.000000 0.000000
v 0.500000 -1.000000 0.000000
v 0.500000 1.000000 0.000000
v 0.000000 1.000000 0.000000
v 0.000000 -1.000000 0.000000
vt 0.6847 0.6929
vt 0.7388 0.4619
vt 0.6847 0.6929
vt 0.8153 0.3266
vt 0.6847 0.2310
vt 0.8153 0.1353
vt 0.9235 1.0000
vt 0.8153 0.0000
vt 0.9235 0.0000
vt 0.8153 0.5972
vt 0.6847 0.6929
vt 0.6847 0.2310
vt 0.7388 0.0000
vt 0.1847 0.0000
vt 0.2612 1.0000
vt 0.1847 1.0000
vt 0.8153 0.7886
vt 0.6847 0.6929
vt 0.6847 0.2310
vt 0.6306 0.0000
vt 0.2612 0.0000
vt 0.3694 1.0000
vt 0.7388 0.9239
vt 0.6847 0.6929
vt 0.6847 0.2310
vt 0.5541 0.1353
vt 0.5541 1.0000
vt 0.4776 0.0000
vt 0.5541 0.0000
vt 0.6306 0.9239
vt 0.6847 0.6929
vt 0.6847 0.2310
vt 0.5541 0.3266
vt 0.4776 1.0000
vt 0.3694 0.0000
vt 0.5541 0.7886
vt 0.6847 0.6929
vt 0.6847 0.2310
vt 0.6306 0.4619
vt 0.0000 0.0000
vt 0.0765 1.0000
vt 0.0000 1.0000
vt 0.5541 0.5972
vt 0.6847 0.6929
vt 0.6847 0.2310
vt 0.7388 0.4619
vt 0.0765 0.0000
vt 0.1847 1.0000
vt 0.6306 0.4619
vt 0.6847 0.6929
vt 0.6847 0.2310
vt 0.8153 0.3266
vt 1.0000 1.0000
vt 0.9235 0.0000
vt 1.0000 0.0000
vt 0.6306 0.4619
vt 0.6847 0.2310
vt 0.8153 1.0000
vt 0.3694 0.0000
vt 0.3694 1.0000
vt 0.1847 0.0000
vt 0.9235 1.0000
vn 0.0000 0.0000 1.0000
vn 0.0000 1.0000 0.0000
vn 0.9239 0.0000 0.3827
vn 0.3827 0.0000 0.9239
vn -0.3827 0.0000 0.9239
vn -0.9239 0.0000 0.3827
vn -0.9239 0.0000 -0.3827
vn -0.3827 0.0000 -0.9239
vn 0.3827 0.0000 -0.9239
vn 0.9239 0.0000 -0.3827
vn 0.0000 -1.0000 0.0000
s off
f 4/1/1 5/2/1 8/3/1
f 2/4/2 7/5/2 6/6/2
f 2/7/3 5/8/3 1/9/3
f 8/3/1 9/10/1 12/11/1
f 6/6/2 11/12/2 10/13/2
f 6/14/4 9/15/4 5/16/4
f 12/11/1 13/17/1 16/18/1
f 10/13/2 15/19/2 14/20/2
f 10/21/5 13/22/5 9/15/5
f 16/18/1 17/23/1 20/24/1
f 14/20/2 19/25/2 18/26/2
f 14/27/6 17/28/6 13/29/6
f 20/24/1 21/30/1 24/31/1
f 18/26/2 23/32/2 22/33/2
f 18/34/7 21/35/7 17/28/7
f 24/31/1 25/36/1 28/37/1
f 22/33/2 27/38/2 26/39/2
f 22/40/8 25/41/8 21/42/8
f 28/37/1 29/43/1 32/44/1
f 26/39/2 31/45/2 30/46/2
f 26/47/9 29/48/9 25/41/9
f 32/44/1 33/49/1 36/50/1
f 30/46/2 35/51/2 34/52/2
f 30/53/10 33/54/10 29/55/10
f 4/1/11 1/56/11 5/2/11
f 2/4/1 3/57/1 7/5/1
f 2/7/3 6/58/3 5/8/3
f 8/3/11 5/2/11 9/10/11
f 6/6/1 7/5/1 11/12/1
f 6/14/4 10/21/4 9/15/4
f 12/11/11 9/10/11 13/17/11
f 10/13/1 11/12/1 15/19/1
f 10/21/5 14/59/5 13/22/5
f 16/18/11 13/17/11 17/23/11
f 14/20/1 15/19/1 19/25/1
f 14/27/6 18/34/6 17/28/6
f 20/24/11 17/23/11 21/30/11
f 18/26/1 19/25/1 23/32/1
f 18/34/7 22/60/7 21/35/7
f 24/31/11 21/30/11 25/36/11
f 22/33/1 23/32/1 27/38/1
f 22/40/8 26/47/8 25/41/8
f 28/37/11 25/36/11 29/43/11
f 26/39/1 27/38/1 31/45/1
f 26/47/9 30/61/9 29/48/9
f 32/44/11 29/43/11 33/49/11
f 30/46/1 31/45/1 35/51/1
f 30/53/10 34/62/10 33/54/10
