# Blender v2.77 (sub 0) OBJ File: 'Dipyramid.blend'
# www.blender.org
v 0.000000 -1.000000 0.000000
v 0.000000 0.000000 -1.000000
v 0.000000 1.000000 0.000000
v 0.866025 0.000000 0.500000
v -0.866025 0.000000 0.500000
vt 0.5191 0.0001
vt 0.5191 0.5191
vt 0.1299 0.1299
vt 0.0001 0.6835
vt 0.4925 0.5194
vt 0.4925 0.9297
vt 0.9999 0.5549
vt 0.5194 0.4856
vt 0.9999 0.0695
vt 0.5194 0.0001
vt 0.1299 0.1299
vt 0.0001 0.5191
vn 0.7746 -0.4472 -0.4472
vn 0.7746 0.4472 -0.4472
vn -0.0000 -0.4472 0.8944
vn -0.0000 0.4472 0.8944
vn -0.7746 -0.4472 -0.4472
vn -0.7746 0.4472 -0.4472
s off
f 1/1/1 2/2/1 4/3/1
f 2/4/2 3/5/2 4/6/2
f 1/7/3 4/8/3 5/9/3
f 4/8/4 3/10/4 5/9/4
f 1/1/5 5/11/5 2/2/5
f 5/11/6 3/12/6 2/2/6
