# Blender v2.77 (sub 0) OBJ File: ''
# www.blender.org
v 0.000000 6.460258 -1.000000
v 0.195090 6.460258 -0.980785
v 0.382683 6.460258 -0.923880
v 0.555570 6.460258 -0.831470
v 0.707107 6.460258 -0.707107
v 0.831470 6.460258 -0.555570
v 0.923880 6.460258 -0.382683
v 0.980785 6.460258 -0.195090
v 1.000000 6.460258 -0.000000
v 0.000000 8.460258 0.000000
v 0.980785 6.460258 0.195090
v 0.923880 6.460258 0.382683
v 0.831470 6.460258 0.555570
v 0.707107 6.460258 0.707107
v 0.555570 6.460258 0.831470
v 0.382683 6.460258 0.923880
v 0.195090 6.460258 0.980785
v -0.000000 6.460258 1.000000
v -0.195091 6.460258 0.980785
v -0.382684 6.460258 0.923879
v -0.555571 6.460258 0.831469
v -0.707107 6.460258 0.707106
v -0.831470 6.460258 0.555570
v -0.923880 6.460258 0.382683
v -0.980785 6.460258 0.195089
v -1.000000 6.460258 -0.000001
v -0.980785 6.460258 -0.195091
v -0.923879 6.460258 -0.382684
v -0.831469 6.460258 -0.555571
v -0.707106 6.460258 -0.707108
v -0.555569 6.460258 -0.831470
v -0.382682 6.460258 -0.923880
v -0.195089 6.460258 -0.980786
v 0.000001 -6.539743 -1.000000
v 0.195091 -6.539743 -0.980785
v 0.382684 -6.539743 -0.923880
v 0.555571 -6.539743 -0.831470
v 0.707107 -6.539743 -0.707107
v 0.831470 -6.539743 -0.555570
v 0.923880 -6.539743 -0.382683
v 0.980786 -6.539743 -0.195090
v 1.000001 -6.539743 -0.000000
v 0.980786 -6.539743 0.195090
v 0.923880 -6.539743 0.382683
v 0.831470 -6.539743 0.555570
v 0.707107 -6.539743 0.707107
v 0.555571 -6.539743 0.831470
v 0.382684 -6.539743 0.923880
v 0.195091 -6.539743 0.980785
v 0.000000 -6.539743 1.000000
v -0.195090 -6.539743 0.980785
v -0.382683 -6.539743 0.923879
v -0.555570 -6.539743 0.831469
v -0.707107 -6.539743 0.707106
v -0.831469 -6.539743 0.555570
v -0.923879 -6.539743 0.382683
v -0.980785 -6.539743 0.195089
v -0.999999 -6.539743 -0.000001
v -0.980784 -6.539743 -0.195091
v -0.923878 -6.539743 -0.382684
v -0.831468 -6.539743 -0.555571
v -0.707105 -6.539743 -0.707108
v -0.555568 -6.539743 -0.831470
v -0.382681 -6.539743 -0.923880
v -0.195088 -6.539743 -0.980786
vt 0.2319 0.8222
vt 0.2921 0.9681
vt 0.2111 0.8247
vt 0.7253 0.8578
vt 0.6651 1.0000
vt 0.7022 0.8569
vt 0.6776 0.8565
vt 0.6526 0.8565
vt 0.6281 0.8569
vt 0.6050 0.8578
vt 0.4046 0.1435
vt 0.4855 0.0000
vt 0.4254 0.1459
vt 0.4485 0.1476
vt 0.4730 0.1485
vt 0.4981 0.1485
vt 0.5226 0.1476
vt 0.5457 0.1459
vt 0.5665 0.1435
vt 0.5842 0.1404
vt 0.2111 0.8315
vt 0.0986 0.9681
vt 0.1973 0.8278
vt 0.1796 0.8247
vt 0.1588 0.8222
vt 0.1357 0.8205
vt 0.1111 0.8197
vt 0.0861 0.8197
vt 0.0616 0.8205
vt 0.0385 0.8222
vt 0.0177 0.8247
vt 0.0000 0.8278
vt 0.4046 0.8315
vt 0.3907 0.8278
vt 0.3730 0.8247
vt 0.3522 0.8222
vt 0.3291 0.8205
vt 0.3046 0.8197
vt 0.2796 0.8197
vt 0.2551 0.8205
vt 0.6281 0.0005
vt 0.9717 0.0241
vt 0.9540 0.1183
vt 0.7744 0.1091
vt 0.1357 0.0009
vt 0.3907 0.0081
vt 0.5457 0.9656
vt 0.5842 0.8591
vt 0.6050 0.0013
vt 0.1111 0.0000
vt 0.7461 0.0026
vt 0.7461 0.8591
vt 0.3522 0.0025
vt 0.3730 0.0050
vt 0.5665 0.9632
vt 0.4254 0.9656
vt 0.0861 0.0000
vt 0.7253 0.0013
vt 0.2111 0.0118
vt 0.0616 0.0009
vt 0.3291 0.0009
vt 0.4485 0.9673
vt 0.7022 0.0005
vt 0.1973 0.0081
vt 0.0385 0.0025
vt 0.3046 0.0000
vt 0.4730 0.9681
vt 0.6776 0.0000
vt 0.1796 0.0050
vt 0.0177 0.0050
vt 0.2796 0.0000
vt 0.4981 0.9681
vt 0.6526 0.0000
vt 0.1588 0.0025
vt 0.2551 0.0009
vt 0.4046 0.0118
vt 0.5226 0.9673
vt 0.7605 0.0982
vt 0.7509 0.0860
vt 0.7461 0.0732
vt 0.7461 0.0600
vt 0.7509 0.0472
vt 0.7921 0.0149
vt 0.7605 0.0351
vt 0.7744 0.0241
vt 0.8129 0.0076
vt 0.8360 0.0026
vt 0.8605 0.0000
vt 0.8855 0.0000
vt 0.9101 0.0026
vt 0.9332 0.0076
vt 0.9540 0.0149
vt 0.9855 0.0351
vt 0.9951 0.0472
vt 1.0000 0.0600
vt 1.0000 0.0732
vt 0.9951 0.0860
vt 0.9855 0.0982
vt 0.9717 0.1091
vt 0.9332 0.1256
vt 0.9101 0.1307
vt 0.8855 0.1332
vt 0.8605 0.1332
vt 0.8360 0.1307
vt 0.8129 0.1256
vt 0.7921 0.1183
vt 0.5842 0.0026
vt 0.5842 0.9600
vt 0.0000 0.0081
vt 0.2319 0.0025
vn 0.0878 0.4455 -0.8910
vn 0.2599 0.4455 -0.8567
vn 0.4220 0.4455 -0.7896
vn 0.5680 0.4455 -0.6921
vn 0.6921 0.4455 -0.5680
vn 0.7896 0.4455 -0.4220
vn 0.8567 0.4455 -0.2599
vn 0.8910 0.4455 -0.0878
vn 0.8910 0.4455 0.0878
vn 0.8567 0.4455 0.2599
vn 0.7896 0.4455 0.4220
vn 0.6921 0.4455 0.5680
vn 0.5680 0.4455 0.6921
vn 0.4220 0.4455 0.7896
vn 0.2599 0.4455 0.8567
vn 0.0878 0.4455 0.8910
vn -0.0878 0.4455 0.8910
vn -0.2599 0.4455 0.8567
vn -0.4220 0.4455 0.7896
vn -0.5680 0.4455 0.6921
vn -0.6921 0.4455 0.5680
vn -0.7896 0.4455 0.4220
vn -0.8567 0.4455 0.2599
vn -0.8910 0.4455 0.0878
vn -0.8910 0.4455 -0.0878
vn -0.8567 0.4455 -0.2599
vn -0.7896 0.4455 -0.4220
vn -0.6921 0.4455 -0.5680
vn -0.5680 0.4455 -0.6921
vn -0.4220 0.4455 -0.7896
vn -0.2599 0.4455 -0.8567
vn -0.0878 0.4455 -0.8910
vn 0.8819 0.0000 -0.4714
vn 0.0000 -1.0000 0.0000
vn -0.4714 -0.0000 0.8819
vn -0.9569 -0.0000 -0.2903
vn 0.6344 0.0000 0.7730
vn 0.9569 0.0000 -0.2903
vn -0.6344 -0.0000 0.7730
vn 0.0980 0.0000 -0.9952
vn -0.8819 -0.0000 -0.4714
vn 0.4714 0.0000 0.8819
vn 0.9952 0.0000 -0.0980
vn -0.7730 -0.0000 0.6344
vn -0.7730 -0.0000 -0.6344
vn 0.2903 0.0000 -0.9569
vn 0.2903 0.0000 0.9569
vn -0.8819 -0.0000 0.4714
vn -0.6344 -0.0000 -0.7730
vn 0.9952 0.0000 0.0980
vn 0.4714 0.0000 -0.8819
vn 0.0980 0.0000 0.9952
vn -0.9569 -0.0000 0.2903
vn -0.4714 -0.0000 -0.8819
vn 0.9569 0.0000 0.2903
vn 0.6344 0.0000 -0.7730
vn -0.0980 -0.0000 0.9952
vn -0.9952 -0.0000 0.0980
vn -0.2903 -0.0000 -0.9569
vn 0.8819 0.0000 0.4714
vn 0.7730 0.0000 -0.6344
vn -0.2903 -0.0000 0.9569
vn -0.0980 -0.0000 -0.9952
vn -0.9952 -0.0000 -0.0980
vn 0.7730 0.0000 0.6344
vn 0.0000 -1.0000 -0.0001
s off
f 1/1/1 10/2/1 2/3/1
f 2/4/2 10/5/2 3/6/2
f 3/6/3 10/5/3 4/7/3
f 4/7/4 10/5/4 5/8/4
f 5/8/5 10/5/5 6/9/5
f 6/9/6 10/5/6 7/10/6
f 7/11/7 10/12/7 8/13/7
f 8/13/8 10/12/8 9/14/8
f 9/14/9 10/12/9 11/15/9
f 11/15/10 10/12/10 12/16/10
f 12/16/11 10/12/11 13/17/11
f 13/17/12 10/12/12 14/18/12
f 14/18/13 10/12/13 15/19/13
f 15/19/14 10/12/14 16/20/14
f 16/21/15 10/22/15 17/23/15
f 17/23/16 10/22/16 18/24/16
f 18/24/17 10/22/17 19/25/17
f 19/25/18 10/22/18 20/26/18
f 20/26/19 10/22/19 21/27/19
f 21/27/20 10/22/20 22/28/20
f 22/28/21 10/22/21 23/29/21
f 23/29/22 10/22/22 24/30/22
f 24/30/23 10/22/23 25/31/23
f 25/31/24 10/22/24 26/32/24
f 26/33/25 10/2/25 27/34/25
f 27/34/26 10/2/26 28/35/26
f 28/35/27 10/2/27 29/36/27
f 29/36/28 10/2/28 30/37/28
f 30/37/29 10/2/29 31/38/29
f 31/38/30 10/2/30 32/39/30
f 32/39/31 10/2/31 33/40/31
f 33/40/32 10/2/32 1/1/32
f 7/10/33 39/41/33 6/9/33
f 49/42/34 57/43/34 65/44/34
f 21/27/35 52/45/35 20/26/35
f 28/35/36 59/46/36 27/34/36
f 15/19/37 46/47/37 14/18/37
f 8/48/38 40/49/38 7/10/38
f 22/28/39 53/50/39 21/27/39
f 2/4/40 34/51/40 1/52/40
f 28/35/41 61/53/41 60/54/41
f 16/20/42 47/55/42 15/19/42
f 9/14/43 41/56/43 8/13/43
f 23/29/44 54/57/44 22/28/44
f 30/37/45 61/53/45 29/36/45
f 3/6/46 35/58/46 2/4/46
f 17/23/47 48/59/47 16/21/47
f 24/30/48 55/60/48 23/29/48
f 31/38/49 62/61/49 30/37/49
f 11/15/50 42/62/50 9/14/50
f 4/7/51 36/63/51 3/6/51
f 18/24/52 49/64/52 17/23/52
f 25/31/53 56/65/53 24/30/53
f 32/39/54 63/66/54 31/38/54
f 12/16/55 43/67/55 11/15/55
f 5/8/56 37/68/56 4/7/56
f 19/25/57 50/69/57 18/24/57
f 26/32/58 57/70/58 25/31/58
f 33/40/59 64/71/59 32/39/59
f 13/17/60 44/72/60 12/16/60
f 6/9/61 38/73/61 5/8/61
f 20/26/62 51/74/62 19/25/62
f 1/1/63 65/75/63 33/40/63
f 27/34/64 58/76/64 26/33/64
f 13/17/65 46/47/65 45/77/65
f 7/10/33 40/49/33 39/41/33
f 65/44/66 34/78/66 35/79/66
f 35/79/34 36/80/34 37/81/34
f 37/81/34 38/82/34 41/83/34
f 39/84/34 40/85/34 41/83/34
f 41/83/34 42/86/34 43/87/34
f 43/87/34 44/88/34 41/83/34
f 45/89/34 46/90/34 49/42/34
f 47/91/34 48/92/34 49/42/34
f 49/42/34 50/93/34 51/94/34
f 51/94/34 52/95/34 49/42/34
f 53/96/34 54/97/34 55/98/34
f 55/98/34 56/99/34 57/43/34
f 57/43/34 58/100/34 59/101/34
f 59/101/34 60/102/34 57/43/34
f 61/103/34 62/104/34 65/44/34
f 63/105/34 64/106/34 65/44/34
f 65/44/34 35/79/34 37/81/34
f 38/82/34 39/84/34 41/83/34
f 41/83/34 44/88/34 45/89/34
f 46/90/34 47/91/34 49/42/34
f 49/42/34 52/95/34 53/96/34
f 53/96/34 55/98/34 57/43/34
f 57/43/34 60/102/34 61/103/34
f 62/104/34 63/105/34 65/44/34
f 65/44/34 37/81/34 41/83/34
f 41/83/34 45/89/34 65/44/34
f 49/42/34 53/96/34 57/43/34
f 57/43/34 61/103/34 65/44/34
f 65/44/34 45/89/34 49/42/34
f 21/27/35 53/50/35 52/45/35
f 28/35/36 60/54/36 59/46/36
f 15/19/37 47/55/37 46/47/37
f 8/48/38 41/107/38 40/49/38
f 22/28/39 54/57/39 53/50/39
f 2/4/40 35/58/40 34/51/40
f 28/35/41 29/36/41 61/53/41
f 16/20/42 48/108/42 47/55/42
f 9/14/43 42/62/43 41/56/43
f 23/29/44 55/60/44 54/57/44
f 30/37/45 62/61/45 61/53/45
f 3/6/46 36/63/46 35/58/46
f 17/23/47 49/64/47 48/59/47
f 24/30/48 56/65/48 55/60/48
f 31/38/49 63/66/49 62/61/49
f 11/15/50 43/67/50 42/62/50
f 4/7/51 37/68/51 36/63/51
f 18/24/52 50/69/52 49/64/52
f 25/31/53 57/70/53 56/65/53
f 32/39/54 64/71/54 63/66/54
f 12/16/55 44/72/55 43/67/55
f 5/8/56 38/73/56 37/68/56
f 19/25/57 51/74/57 50/69/57
f 26/32/58 58/109/58 57/70/58
f 33/40/59 65/75/59 64/71/59
f 13/17/60 45/77/60 44/72/60
f 6/9/61 39/41/61 38/73/61
f 20/26/62 52/45/62 51/74/62
f 1/1/63 34/110/63 65/75/63
f 27/34/64 59/46/64 58/76/64
f 13/17/65 14/18/65 46/47/65
