# Blender v2.77 (sub 0) OBJ File: 'MiniDecoupler.blend'
# www.blender.org
v 0.138564 -0.135000 -0.080000
v -0.000000 0.135000 -0.160000
v 0.000000 -0.100000 -0.400000
v 0.000000 0.100000 -0.400000
v 0.346410 -0.100000 -0.200000
v 0.346410 0.100000 -0.200000
v 0.115097 -0.085857 0.333549
v 0.115097 -0.057901 0.333549
v 0.016781 -0.085857 0.390311
v 0.016781 -0.057901 0.390311
v -0.346410 -0.100000 0.200000
v -0.346410 0.100000 0.200000
v -0.346410 -0.100000 -0.200000
v -0.346410 0.100000 -0.200000
v -0.000000 0.110000 -0.160000
v 0.138564 -0.110000 -0.080000
v 0.138564 0.110000 -0.080000
v 0.138564 0.110000 0.080000
v -0.000000 0.110000 0.160000
v -0.138564 0.110000 0.080000
v -0.138564 0.110000 -0.080000
v -0.000000 0.135000 0.000000
v 0.138564 0.135000 -0.080000
v 0.138564 0.135000 0.080000
v -0.000000 0.135000 0.160000
v -0.138564 0.135000 0.080000
v -0.138564 0.135000 -0.080000
v -0.000000 -0.110000 -0.160000
v 0.138564 -0.110000 0.080000
v -0.000000 -0.110000 0.160000
v -0.138564 -0.110000 0.080000
v -0.138564 -0.110000 -0.080000
v -0.000000 -0.135000 0.000000
v -0.000000 -0.135000 -0.160000
v 0.138564 -0.135000 0.080000
v -0.000000 -0.135000 0.160000
v -0.138564 -0.135000 0.080000
v -0.138564 -0.135000 -0.080000
v 0.346410 0.100000 0.200000
v 0.346410 -0.100000 0.200000
v -0.000000 -0.100000 0.400000
v -0.000000 0.100000 0.400000
v 0.087998 -0.057901 0.349194
v 0.061944 -0.057901 0.364236
v 0.061944 -0.085857 0.364236
v 0.087998 -0.085857 0.349194
v 0.068557 -0.083760 0.383513
v 0.030168 -0.083760 0.405676
v 0.030168 -0.059997 0.405676
v 0.068557 -0.059997 0.383513
v 0.123065 -0.059997 0.352043
v 0.123065 -0.083760 0.352043
v 0.100030 -0.059997 0.365342
v 0.100030 -0.083760 0.365342
vt 0.7603 0.9437
vt 0.7748 0.9616
vt 0.7603 0.9630
vt 0.8171 0.9397
vt 0.8000 0.9703
vt 0.8000 0.9397
vt 0.8557 0.9758
vt 0.8412 0.9424
vt 0.8557 0.9397
vt 0.8171 0.9758
vt 0.8316 0.9424
vt 0.8316 0.9731
vt 0.7892 0.9630
vt 0.7748 0.9451
vt 0.7892 0.9437
vt 0.7748 0.9451
vt 0.8171 0.9703
vt 0.8412 0.9731
vt 0.8171 0.9397
vt 0.7748 0.9616
vt 0.3719 0.9437
vt 0.3864 0.9637
vt 0.3719 0.9653
vt 0.3547 0.9621
vt 0.3719 0.9437
vt 0.3719 0.9621
vt 0.4008 0.9437
vt 0.3864 0.9637
vt 0.3864 0.9453
vt 0.3795 0.9153
vt 0.3654 0.9332
vt 0.3654 0.9168
vt 0.3795 0.9153
vt 0.3935 0.9332
vt 0.3795 0.9347
vt 0.3864 0.9453
vt 0.3547 0.9437
vt 0.4008 0.9653
vt 0.3795 0.9347
vt 0.3935 0.9168
vt 0.5000 0.1385
vt 0.6501 0.3323
vt 0.5000 0.4154
vt 0.5000 0.1385
vt 0.2499 0.1662
vt 0.2500 0.0000
vt 0.0000 1.0000
vt 0.1444 0.8279
vt 0.1444 1.0000
vt 0.7501 0.3877
vt 0.7500 0.5539
vt 0.5000 0.4154
vt 0.3499 0.2216
vt 0.0000 0.8279
vt 0.1444 0.5539
vt 0.8501 0.3323
vt 1.0000 0.4154
vt 0.0000 0.4154
vt 0.2499 0.3877
vt 0.2500 0.5539
vt 0.7500 0.0000
vt 0.8501 0.2216
vt 0.7501 0.1662
vt 0.0000 0.1385
vt 0.1499 0.3323
vt 0.2887 0.5539
vt 0.1444 0.8279
vt 0.1444 0.5539
vt 1.0000 0.1385
vt 0.3499 0.3323
vt 0.2887 0.8279
vt 0.1444 1.0000
vt 0.6501 0.2216
vt 0.1499 0.2216
vt 0.7000 0.8309
vt 0.8444 0.5539
vt 0.8444 0.8309
vt 0.5180 0.7755
vt 0.5361 0.8443
vt 0.5180 0.8443
vt 0.5361 0.9539
vt 0.5180 0.9539
vt 0.6263 0.7755
vt 0.6444 0.8862
vt 0.6263 0.8862
vt 0.5361 0.7755
vt 0.5541 0.8850
vt 0.5361 0.8850
vt 0.5541 0.9539
vt 0.5361 0.9539
vt 0.5902 0.8862
vt 0.5722 0.7755
vt 0.5902 0.7755
vt 0.3887 0.6647
vt 0.3887 0.7755
vt 0.2887 0.7201
vt 0.4887 0.7201
vt 0.4887 0.6093
vt 0.3887 0.5539
vt 0.2887 0.6093
vt 0.5902 0.7755
vt 0.6083 0.8862
vt 0.5902 0.8862
vt 0.5000 0.8850
vt 0.5180 0.9539
vt 0.5000 0.9539
vt 0.5000 0.7755
vt 0.5180 0.8850
vt 0.6263 0.8862
vt 0.6083 0.7755
vt 0.6263 0.7755
vt 0.5722 0.8850
vt 0.5541 0.7755
vt 0.5722 0.7755
vt 0.5722 0.9539
vt 0.5541 0.8850
vt 0.6000 0.6647
vt 0.5000 0.7201
vt 0.5000 0.6093
vt 0.6000 0.5539
vt 0.7000 0.6093
vt 0.7000 0.7201
vt 0.6000 0.7755
vt 0.8748 0.7389
vt 0.8444 0.5539
vt 0.9888 0.5539
vt 0.8546 0.7605
vt 0.8444 0.8309
vt 0.8546 0.7389
vt 0.8748 0.7605
vt 0.9888 0.8309
vt 0.8748 0.8175
vt 0.8546 0.8175
vt 0.8546 0.7813
vt 0.0000 0.5539
vt 0.2887 1.0000
vt 0.7000 0.5539
vt 0.5361 0.7755
vt 0.6444 0.7755
vt 0.5541 0.7755
vt 0.5722 0.8862
vt 0.6083 0.7755
vt 0.5180 0.7755
vt 0.6083 0.8862
vt 0.5541 0.9539
vt 0.8748 0.7813
vn -0.7540 0.0000 0.6569
vn 0.5000 0.0000 0.8660
vn 0.0521 -0.9945 0.0903
vn 0.0521 0.9945 0.0903
vn 0.9459 0.0000 -0.3245
vn 0.9184 0.0000 -0.3957
vn -0.8019 0.0000 0.5975
vn 0.0240 -0.9988 0.0416
vn -0.0240 0.9988 0.0416
vn 0.5000 0.0000 -0.8660
vn 0.0481 -0.9988 0.0000
vn 0.0240 0.9988 0.0416
vn 1.0000 0.0000 0.0000
vn 0.0240 -0.9988 -0.0416
vn 0.0240 0.9988 -0.0416
vn -0.0481 -0.9988 0.0000
vn -0.0240 0.9988 -0.0416
vn -0.5000 0.0000 0.8660
vn -0.0240 -0.9988 -0.0416
vn 0.0481 0.9988 -0.0000
vn -1.0000 0.0000 0.0000
vn -0.0240 -0.9988 0.0416
vn -0.0481 0.9988 0.0000
vn -0.5000 0.0000 -0.8660
vn -0.0000 1.0000 0.0000
vn 0.0000 -1.0000 0.0000
s off
f 9/1/1 49/2/1 10/3/1
f 50/4/2 48/5/2 47/6/2
f 45/7/3 48/8/3 9/9/3
f 44/10/4 49/11/4 50/12/4
f 44/13/5 47/14/5 45/15/5
f 9/1/1 48/16/1 49/2/1
f 50/4/2 49/17/2 48/5/2
f 45/7/3 47/18/3 48/8/3
f 44/10/4 10/19/4 49/11/4
f 44/13/5 50/20/5 47/14/5
f 43/21/4 51/22/4 8/23/4
f 51/24/2 54/25/2 52/26/2
f 46/27/3 52/28/3 54/29/3
f 7/30/6 51/31/6 52/32/6
f 46/33/7 53/34/7 43/35/7
f 43/21/4 53/36/4 51/22/4
f 51/24/2 53/37/2 54/25/2
f 46/27/3 7/38/3 52/28/3
f 7/30/6 8/39/6 51/31/6
f 46/33/7 54/40/7 53/34/7
f 41/41/8 29/42/8 40/43/8
f 42/44/9 20/45/9 12/46/9
f 4/47/10 5/48/10 3/49/10
f 40/43/11 16/50/11 5/51/11
f 39/52/12 19/53/12 42/44/12
f 6/54/13 40/55/13 5/48/13
f 5/51/14 28/56/14 3/57/14
f 4/58/15 17/59/15 6/60/15
f 11/61/16 32/62/16 31/63/16
f 14/64/17 15/65/17 4/58/17
f 42/66/18 11/67/18 41/68/18
f 13/69/19 28/56/19 32/62/19
f 39/52/20 17/59/20 18/70/20
f 12/71/21 13/72/21 11/67/21
f 11/61/22 30/73/22 41/41/22
f 12/46/23 21/74/23 14/64/23
f 14/75/24 3/76/24 13/77/24
f 15/78/10 23/79/10 17/80/10
f 17/80/13 24/81/13 18/82/13
f 18/83/2 25/84/2 19/85/2
f 19/86/18 26/87/18 20/88/18
f 20/88/21 27/89/21 21/90/21
f 21/91/24 2/92/24 15/93/24
f 22/94/25 23/95/25 2/96/25
f 22/94/25 24/97/25 23/95/25
f 22/94/25 25/98/25 24/97/25
f 22/94/25 26/99/25 25/98/25
f 22/94/25 27/100/25 26/99/25
f 22/94/25 2/96/25 27/100/25
f 28/101/24 38/102/24 32/103/24
f 16/104/10 34/105/10 28/106/10
f 29/107/13 1/108/13 16/104/13
f 30/109/2 35/110/2 29/111/2
f 31/112/18 36/113/18 30/114/18
f 32/115/21 37/116/21 31/112/21
f 33/117/26 34/118/26 1/119/26
f 33/117/26 1/119/26 35/120/26
f 33/117/26 35/120/26 36/121/26
f 33/117/26 36/121/26 37/122/26
f 33/117/26 37/122/26 38/123/26
f 33/117/26 38/123/26 34/118/26
f 8/124/2 40/125/2 39/126/2
f 46/127/2 41/128/2 7/129/2
f 43/130/2 8/124/2 42/131/2
f 10/132/2 41/128/2 9/133/2
f 43/130/2 45/134/2 46/127/2
f 41/41/8 30/73/8 29/42/8
f 42/44/9 19/53/9 20/45/9
f 4/47/10 6/54/10 5/48/10
f 40/43/11 29/42/11 16/50/11
f 39/52/12 18/70/12 19/53/12
f 6/54/13 39/135/13 40/55/13
f 5/51/14 16/50/14 28/56/14
f 4/58/15 15/65/15 17/59/15
f 11/61/16 13/69/16 32/62/16
f 14/64/17 21/74/17 15/65/17
f 42/66/18 12/71/18 11/67/18
f 13/69/19 3/57/19 28/56/19
f 39/52/20 6/60/20 17/59/20
f 12/71/21 14/136/21 13/72/21
f 11/61/22 31/63/22 30/73/22
f 12/46/23 20/45/23 21/74/23
f 14/75/24 4/137/24 3/76/24
f 15/78/10 2/138/10 23/79/10
f 17/80/13 23/79/13 24/81/13
f 18/83/2 24/139/2 25/84/2
f 19/86/18 25/140/18 26/87/18
f 20/88/21 26/87/21 27/89/21
f 21/91/24 27/141/24 2/92/24
f 28/101/24 34/142/24 38/102/24
f 16/104/10 1/108/10 34/105/10
f 29/107/13 35/143/13 1/108/13
f 30/109/2 36/144/2 35/110/2
f 31/112/18 37/116/18 36/113/18
f 32/115/21 38/145/21 37/116/21
f 8/124/2 7/129/2 40/125/2
f 40/125/2 7/129/2 41/128/2
f 46/127/2 45/134/2 41/128/2
f 9/133/2 41/128/2 45/134/2
f 42/131/2 10/132/2 44/146/2
f 44/146/2 43/130/2 42/131/2
f 8/124/2 39/126/2 42/131/2
f 10/132/2 42/131/2 41/128/2
f 43/130/2 44/146/2 45/134/2
