# Blender v2.77 (sub 0) OBJ File: 'Obelisk.blend'
# www.blender.org
v 0.000000 -3.220000 -1.000000
v -0.000000 3.220000 -0.746680
v 0.866025 -3.220000 -0.500000
v 0.646644 3.220000 -0.373340
v 0.866025 -3.220000 0.500000
v 0.646644 3.220000 0.373340
v -0.000000 -3.220000 1.000000
v -0.000000 3.220000 0.746680
v -0.866025 -3.220000 0.500000
v -0.646644 3.220000 0.373340
v -0.866025 -3.220000 -0.500000
v -0.646644 3.220000 -0.373340
v -0.000000 3.282517 -0.615631
v 0.000000 3.220000 0.000000
v 0.533152 3.282517 -0.307815
v 0.533152 3.282517 0.307815
v -0.000000 3.282517 0.615631
v -0.533152 3.282517 0.307815
v -0.533152 3.282517 -0.307815
v -0.113450 -2.254000 -0.896501
v -0.113450 2.254000 -0.719177
v -0.566101 2.254000 -0.457839
v -0.719668 -2.254000 -0.546501
v -0.113450 2.254000 0.719177
v -0.113450 -2.254000 0.896501
v -0.719668 -2.254000 0.546501
v -0.566101 2.254000 0.457839
v 0.679551 2.254000 -0.261338
v 0.833118 -2.254000 -0.350000
v 0.833118 -2.254000 0.350000
v 0.679551 2.254000 0.261338
v 0.783332 2.144705 -0.223444
v 0.929221 -2.137895 -0.299250
v 0.929221 -2.137895 0.299250
v 0.783332 2.144705 0.223444
v -0.198158 2.144705 0.790108
v -0.205453 -2.137895 0.954354
v -0.723769 -2.137895 0.655104
v -0.585174 2.144705 0.566664
v -0.205452 -2.137895 -0.954354
v -0.198158 2.144705 -0.790108
v -0.585174 2.144705 -0.566664
v -0.723769 -2.137895 -0.655104
v 0.692820 -3.420000 -0.400000
v 0.000000 -3.420000 0.000000
v -0.000000 -3.420000 -0.800000
v 0.692820 -3.420000 0.400000
v -0.000000 -3.420000 0.800000
v -0.692820 -3.420000 0.400000
v -0.692820 -3.420000 -0.400000
vt 0.6500 0.0003
vt 0.6702 0.0877
vt 0.6500 0.0877
vt 0.4022 0.6617
vt 0.4022 0.5864
vt 0.3959 0.6485
vt 0.6702 0.2631
vt 0.0205 0.1758
vt 0.0205 0.2631
vt 0.7709 0.6560
vt 0.6782 0.6638
vt 0.6709 0.6424
vt 0.1315 0.5864
vt 0.1315 0.6617
vt 0.0663 0.6240
vt 0.7716 0.6472
vt 0.8375 0.0989
vt 0.7940 0.5517
vt 0.6500 0.4521
vt 0.6702 0.3613
vt 0.6500 0.3512
vt 0.2634 0.5864
vt 0.2096 0.6306
vt 0.1981 0.6240
vt 0.0003 0.1530
vt 0.6500 0.1751
vt 0.6702 0.1576
vt 0.1974 0.5864
vt 0.1974 0.6617
vt 0.1322 0.6240
vt 0.8471 0.6482
vt 0.9042 0.0989
vt 0.8665 0.5523
vt 0.0003 0.2631
vt 0.3952 0.6617
vt 0.3838 0.5930
vt 0.3952 0.5864
vt 0.0003 0.3640
vt 0.0003 0.3330
vt 0.0205 0.3505
vt 0.3293 0.6617
vt 0.2641 0.6240
vt 0.3293 0.5864
vt 0.9778 0.6500
vt 0.9664 0.0978
vt 0.9664 0.5526
vt 0.0656 0.5864
vt 0.0656 0.6485
vt 0.0118 0.6174
vt 0.2634 0.6617
vt 0.2634 0.5996
vt 0.3300 0.6240
vt 0.3838 0.6551
vt 0.4921 0.4528
vt 0.4921 0.5180
vt 0.4858 0.4642
vt 0.5061 0.5180
vt 0.5061 0.4528
vt 0.4998 0.5066
vt 0.0003 0.6240
vt 0.0656 0.6617
vt 0.6702 0.4528
vt 0.6089 0.4657
vt 0.6612 0.4647
vt 0.1180 0.2746
vt 0.6702 0.3284
vt 0.1180 0.3357
vt 0.9207 0.5526
vt 0.9126 0.6500
vt 0.4677 0.5055
vt 0.4781 0.4566
vt 0.4781 0.5017
vt 0.5526 0.0151
vt 0.0003 0.0877
vt 0.5526 0.0763
vt 0.9119 0.5577
vt 0.9119 0.6558
vt 0.4441 0.5234
vt 0.4324 0.4579
vt 0.4441 0.4528
vt 0.8464 0.5578
vt 0.8464 0.6559
vt 0.7690 0.5574
vt 0.7709 0.0003
vt 0.6990 0.5479
vt 0.0003 0.5106
vt 0.4324 0.5183
vt 0.9893 0.4559
vt 0.9994 0.8996
vt 0.9893 0.9110
vt 0.9886 0.9110
vt 0.9785 0.4673
vt 0.9785 0.8996
vt 0.4448 0.5055
vt 0.4558 0.4566
vt 0.4558 0.5017
vt 0.0114 0.5771
vt 0.4434 0.5241
vt 0.4434 0.5764
vt 0.4551 0.5857
vt 0.4551 0.5245
vt 0.6082 0.4528
vt 0.5974 0.8964
vt 0.6082 0.9077
vt 0.6312 0.8974
vt 0.9997 0.0003
vt 0.9911 0.4441
vt 0.9997 0.4551
vt 0.4670 0.5055
vt 0.4565 0.4566
vt 0.4670 0.4528
vt 0.9897 0.4552
vt 0.9789 0.0116
vt 0.9785 0.4437
vt 0.5257 0.6048
vt 0.5956 0.6451
vt 0.5956 0.5644
vt 0.5257 0.5241
vt 0.4558 0.5644
vt 0.4558 0.6451
vt 0.5257 0.6855
vt 0.6702 0.0178
vt 0.6702 0.1979
vt 0.7582 0.6746
vt 0.8337 0.0003
vt 0.6702 0.4420
vt 0.9009 0.0003
vt 0.0003 0.1932
vt 0.0003 0.4393
vt 0.9778 0.0003
vt 0.4851 0.4528
vt 0.4851 0.5180
vt 0.4788 0.5066
vt 0.4991 0.5180
vt 0.4991 0.4528
vt 0.4928 0.4642
vt 0.4092 0.6617
vt 0.4092 0.5864
vt 0.4029 0.5996
vt 0.6091 0.4540
vt 0.5728 0.3203
vt 0.4677 0.4528
vt 0.0978 0.0763
vt 0.7690 0.0984
vt 0.0003 0.4655
vt 0.9994 0.4673
vt 0.9886 0.4559
vt 0.4448 0.4528
vt 0.0114 0.5381
vt 0.5970 0.4643
vt 0.0003 0.5857
vt 0.6702 0.8966
vt 0.9904 0.0121
vt 0.4565 0.5017
vt 0.9897 0.0003
vn -0.3780 -0.6547 0.6547
vn -1.0000 -0.0000 0.0000
vn 0.4997 0.0340 -0.8655
vn 0.7559 -0.6547 0.0000
vn 0.0000 1.0000 0.0000
vn 0.9994 0.0340 -0.0000
vn -0.7559 -0.6547 0.0000
vn 0.2412 0.8759 0.4179
vn 0.4997 0.0340 0.8655
vn 0.3780 -0.6547 0.6547
vn -0.4997 0.0340 0.8655
vn 0.3780 -0.6547 -0.6547
vn -0.4825 0.8759 0.0000
vn -0.9994 0.0340 0.0000
vn -0.3780 -0.6547 -0.6547
vn -0.4997 0.0340 -0.8655
vn -0.0582 0.9932 0.1009
vn -0.0582 0.9932 -0.1009
vn 0.1165 0.9932 0.0000
vn 0.5000 0.0000 0.8660
vn 0.5000 0.0000 -0.8660
vn 0.2412 0.8759 -0.4179
vn -0.3852 -0.6376 -0.6671
vn -0.3626 0.6886 0.6280
vn 0.7703 -0.6376 0.0000
vn 0.3714 0.0309 0.9280
vn 0.4374 0.0308 -0.8987
vn 0.7252 0.6886 0.0000
vn -0.3852 -0.6376 0.6671
vn -0.9893 0.0309 -0.1424
vn 0.5596 0.0308 0.8282
vn 0.6180 0.0309 -0.7856
vn -0.3626 0.6886 -0.6280
vn -0.9970 0.0308 0.0706
vn 0.0000 -1.0000 0.0000
vn 0.2412 0.8759 0.4178
vn 0.2412 0.8759 -0.4178
vn 0.4374 0.0308 0.8987
vn 0.3714 0.0309 -0.9280
vn -0.9970 0.0308 -0.0706
vn 0.6180 0.0309 0.7856
vn 0.5596 0.0308 -0.8282
vn -0.9893 0.0309 0.1424
s off
f 9/1/1 48/2/1 7/3/1
f 2/4/2 14/5/2 13/6/2
f 2/7/3 3/8/3 1/9/3
f 5/10/4 44/11/4 3/12/4
f 14/13/5 6/14/5 4/15/5
f 6/16/6 30/17/6 31/18/6
f 11/19/7 49/20/7 9/21/7
f 6/22/8 17/23/8 8/24/8
f 6/25/9 7/3/9 5/26/9
f 7/3/10 47/27/10 5/26/10
f 10/28/5 8/29/5 14/30/5
f 10/31/11 26/32/11 27/33/11
f 3/8/12 46/34/12 1/9/12
f 10/35/13 19/36/13 12/37/13
f 10/38/14 11/19/14 9/21/14
f 1/9/15 50/39/15 11/40/15
f 2/41/5 12/42/5 14/43/5
f 2/44/16 20/45/16 21/46/16
f 14/47/17 15/48/17 13/49/17
f 14/50/18 17/23/18 16/51/18
f 14/52/19 19/36/19 18/53/19
f 10/54/20 14/55/20 18/56/20
f 6/57/21 14/58/21 16/59/21
f 2/60/22 15/48/22 4/61/22
f 20/62/23 43/63/23 40/64/23
f 11/40/16 20/65/16 1/9/16
f 12/66/16 23/67/16 11/40/16
f 2/44/16 22/68/16 12/69/16
f 24/70/24 39/71/24 36/72/24
f 7/3/11 26/73/11 9/1/11
f 8/74/11 25/75/11 7/3/11
f 10/31/11 24/76/11 8/77/11
f 29/78/25 34/79/25 30/80/25
f 6/16/6 28/81/6 4/82/6
f 3/12/6 30/83/6 5/10/6
f 4/84/6 29/85/6 3/12/6
f 32/86/6 34/79/6 33/87/6
f 30/88/26 35/89/26 31/90/26
f 29/91/27 32/92/27 33/93/27
f 28/94/28 35/95/28 32/96/28
f 36/97/11 38/98/11 37/99/11
f 25/100/29 38/98/29 26/101/29
f 26/102/30 39/103/30 27/104/30
f 25/100/31 36/97/31 37/99/31
f 42/105/16 40/64/16 43/63/16
f 20/106/32 41/107/32 21/108/32
f 21/109/33 42/110/33 22/111/33
f 23/112/34 42/113/34 43/114/34
f 45/115/35 46/116/35 44/117/35
f 45/115/35 44/117/35 47/118/35
f 45/115/35 47/118/35 48/119/35
f 45/115/35 48/119/35 49/120/35
f 45/115/35 49/120/35 50/121/35
f 45/115/35 50/121/35 46/116/35
f 9/1/1 49/122/1 48/2/1
f 2/7/3 4/123/3 3/8/3
f 5/10/4 47/124/4 44/11/4
f 6/16/6 5/125/6 30/17/6
f 11/19/7 50/126/7 49/20/7
f 6/22/36 16/51/36 17/23/36
f 6/25/9 8/74/9 7/3/9
f 7/3/10 48/2/10 47/27/10
f 10/31/11 9/127/11 26/32/11
f 3/8/12 44/128/12 46/34/12
f 10/35/13 18/53/13 19/36/13
f 10/38/14 12/129/14 11/19/14
f 1/9/15 46/34/15 50/39/15
f 2/44/16 1/130/16 20/45/16
f 14/131/20 4/132/20 15/133/20
f 14/134/21 12/135/21 19/136/21
f 14/137/2 8/138/2 17/139/2
f 2/60/37 13/49/37 15/48/37
f 20/62/23 23/140/23 43/63/23
f 11/40/16 23/67/16 20/65/16
f 12/66/16 22/141/16 23/67/16
f 2/44/16 21/46/16 22/68/16
f 24/70/24 27/142/24 39/71/24
f 7/3/11 25/75/11 26/73/11
f 8/74/11 24/143/11 25/75/11
f 10/31/11 27/33/11 24/76/11
f 29/78/25 33/87/25 34/79/25
f 6/16/6 31/18/6 28/81/6
f 3/12/6 29/85/6 30/83/6
f 4/84/6 28/144/6 29/85/6
f 32/86/6 35/145/6 34/79/6
f 30/88/38 34/146/38 35/89/38
f 29/91/39 28/147/39 32/92/39
f 28/94/28 31/148/28 35/95/28
f 36/97/11 39/149/11 38/98/11
f 25/100/29 37/99/29 38/98/29
f 26/102/40 38/150/40 39/103/40
f 25/100/41 24/151/41 36/97/41
f 42/105/16 41/152/16 40/64/16
f 20/106/42 40/153/42 41/107/42
f 21/109/33 41/154/33 42/110/33
f 23/112/43 22/155/43 42/113/43
