# Blender v2.77 (sub 0) OBJ File: ''
# www.blender.org
v -0.280514 -0.000002 0.140257
v 0.000000 -0.000002 0.140257
v -0.280514 -0.000002 -0.140257
v 0.000000 -0.000002 -0.140257
v -0.280514 0.035062 -0.140257
v -0.280514 0.035062 0.140257
v 0.000000 0.035062 0.140257
v 0.000000 0.035062 -0.140257
v 0.280514 -0.000002 0.140257
v 0.280514 -0.000002 -0.140257
v 0.280514 0.035062 0.140257
v 0.280514 0.035062 -0.140257
vt 0.9474 1.0000
vt 0.8947 0.5000
vt 0.9474 0.5000
vt 0.4211 0.5000
vt 0.8421 0.0000
vt 0.8421 0.5000
vt 1.0000 0.5000
vt 0.9474 0.0000
vt 1.0000 0.0000
vt 1.0000 1.0000
vt 0.9474 0.5000
vt 1.0000 0.5000
vt 0.0000 0.5000
vt 0.4211 0.0000
vt 0.4211 0.5000
vt 0.8947 0.0000
vt 0.8947 0.5000
vt 0.8947 1.0000
vt 0.8947 0.0000
vt 0.8421 1.0000
vt 0.4211 1.0000
vt 0.4211 0.0000
vt 0.9474 0.5000
vt 0.4211 1.0000
vt 0.0000 1.0000
vt 0.0000 0.0000
vt 0.8947 1.0000
vn 0.0000 0.0000 -1.0000
vn 0.0000 -1.0000 0.0000
vn -1.0000 0.0000 0.0000
vn 1.0000 0.0000 0.0000
vn 0.0000 1.0000 0.0000
vn 0.0000 0.0000 1.0000
s off
f 12/1/1 4/2/1 8/3/1
f 4/4/2 9/5/2 2/6/2
f 1/7/3 5/8/3 3/9/3
f 10/10/4 11/11/4 9/12/4
f 7/13/5 12/14/5 8/15/5
f 2/6/6 11/16/6 7/17/6
f 5/8/1 8/3/1 4/2/1
f 12/1/1 10/18/1 4/2/1
f 4/2/1 3/19/1 5/8/1
f 2/6/2 1/20/2 3/21/2
f 4/4/2 10/22/2 9/5/2
f 2/6/2 3/21/2 4/4/2
f 1/7/3 6/23/3 5/8/3
f 10/10/4 12/1/4 11/11/4
f 5/24/5 6/25/5 7/13/5
f 7/13/5 11/26/5 12/14/5
f 8/15/5 5/24/5 7/13/5
f 6/27/6 1/20/6 2/6/6
f 2/6/6 9/5/6 11/16/6
f 7/17/6 6/27/6 2/6/6
