# Blender v2.77 (sub 0) OBJ File: 'PodA.blend'
# www.blender.org
v 0.382683 -0.509036 -0.923880
v -0.000000 -0.509036 -1.000000
v 0.000000 -0.280223 -0.917097
v 0.000000 0.873956 -0.243245
v 0.350958 -0.280223 -0.847287
v 0.093086 0.873956 -0.224729
v 0.648486 -0.280223 -0.648486
v 0.172000 0.873956 -0.172000
v 0.847287 -0.280223 -0.350958
v 0.224729 0.873956 -0.093086
v 0.917097 -0.280223 0.000000
v 0.243245 0.873956 0.000000
v 0.847287 -0.280223 0.350958
v 0.224729 0.873956 0.093086
v 0.648486 -0.280223 0.648486
v 0.172000 0.873956 0.172000
v 0.350958 -0.280223 0.847287
v 0.093086 0.873956 0.224729
v 0.000000 -0.280223 0.917097
v 0.000000 0.873956 0.243244
v -0.350958 -0.280223 0.847287
v -0.093086 0.873956 0.224729
v -0.648485 -0.280223 0.648486
v -0.172000 0.873956 0.172000
v -0.847287 -0.280223 0.350958
v -0.224729 0.873956 0.093086
v -0.917097 -0.280223 -0.000000
v -0.243244 0.873956 -0.000000
v -0.847287 -0.280223 -0.350958
v -0.224729 0.873956 -0.093086
v -0.648485 -0.280223 -0.648486
v -0.172000 0.873956 -0.172000
v -0.350957 -0.280223 -0.847287
v -0.093085 0.873956 -0.224729
v 0.707107 -0.509036 -0.707107
v 0.923880 -0.509036 -0.382683
v 1.000000 -0.509036 0.000000
v 0.923880 -0.509036 0.382684
v 0.707107 -0.509036 0.707107
v 0.382683 -0.509036 0.923880
v 0.000000 -0.509036 1.000000
v -0.382683 -0.509036 0.923880
v -0.707107 -0.509036 0.707107
v -0.923880 -0.509036 0.382684
v -1.000000 -0.509036 -0.000000
v -0.923879 -0.509036 -0.382684
v -0.707107 -0.509036 -0.707107
v -0.382683 -0.509036 -0.923880
v 0.361319 -0.674655 -0.872300
v -0.000000 -0.674655 -0.944171
v 0.667630 -0.674655 -0.667630
v 0.872300 -0.674655 -0.361319
v 0.944171 -0.674655 0.000000
v 0.872300 -0.674655 0.361319
v 0.667630 -0.674655 0.667630
v 0.361319 -0.674655 0.872300
v 0.000000 -0.674655 0.944171
v -0.361318 -0.674655 0.872300
v -0.667630 -0.674655 0.667630
v -0.872300 -0.674655 0.361319
v -0.944171 -0.674655 -0.000000
v -0.872300 -0.674655 -0.361319
v -0.667629 -0.674655 -0.667630
v -0.361318 -0.674655 -0.872300
v 0.311994 -0.780858 -0.753219
v 0.000000 -0.780858 -0.815279
v 0.576489 -0.780858 -0.576489
v 0.753219 -0.780858 -0.311994
v 0.815279 -0.780858 0.000000
v 0.753219 -0.780858 0.311994
v 0.576489 -0.780858 0.576489
v 0.311994 -0.780858 0.753219
v 0.000000 -0.780858 0.815279
v -0.311993 -0.780858 0.753219
v -0.576489 -0.780858 0.576489
v -0.753219 -0.780858 0.311994
v -0.815279 -0.780858 -0.000000
v -0.753219 -0.780858 -0.311994
v -0.576489 -0.780858 -0.576489
v -0.311993 -0.780858 -0.753219
v 0.000000 0.878379 -0.200505
v 0.076730 0.878379 -0.185242
v 0.141778 0.878379 -0.141778
v 0.185242 0.878379 -0.076730
v 0.200505 0.878379 -0.000000
v 0.185242 0.878379 0.076730
v 0.141778 0.878379 0.141778
v 0.076730 0.878379 0.185242
v 0.000000 0.878379 0.200505
v -0.076730 0.878379 0.185242
v -0.141778 0.878379 0.141778
v -0.185242 0.878379 0.076730
v -0.200505 0.878379 -0.000000
v -0.185242 0.878379 -0.076730
v -0.141778 0.878379 -0.141778
v -0.076730 0.878379 -0.185242
v 0.000000 0.920404 -0.200505
v 0.076730 0.920404 -0.185242
v 0.141778 0.920404 -0.141778
v 0.185242 0.920404 -0.076730
v 0.200505 0.920404 -0.000000
v 0.185242 0.920404 0.076730
v 0.141778 0.920404 0.141778
v 0.076730 0.920404 0.185242
v 0.000000 0.920404 0.200505
v -0.076730 0.920404 0.185242
v -0.141778 0.920404 0.141778
v -0.185242 0.920404 0.076730
v -0.200505 0.920404 -0.000000
v -0.185242 0.920404 -0.076730
v -0.141778 0.920404 -0.141778
v -0.076730 0.920404 -0.185242
v 0.189272 -0.859676 -0.456943
v 0.000000 -0.859676 -0.494592
v 0.349729 -0.859676 -0.349729
v 0.456943 -0.859676 -0.189272
v 0.494592 -0.859676 0.000000
v 0.456943 -0.859676 0.189272
v 0.349729 -0.859676 0.349729
v 0.189272 -0.859676 0.456943
v 0.000000 -0.859676 0.494592
v -0.189272 -0.859676 0.456943
v -0.349729 -0.859676 0.349729
v -0.456943 -0.859676 0.189272
v -0.494592 -0.859676 -0.000000
v -0.456943 -0.859676 -0.189272
v -0.349729 -0.859676 -0.349729
v -0.189272 -0.859676 -0.456944
v 0.053785 -0.908675 -0.129849
v 0.000000 -0.908675 -0.140547
v 0.099382 -0.908675 -0.099382
v 0.129849 -0.908675 -0.053785
v 0.140547 -0.908675 0.000000
v 0.129849 -0.908675 0.053785
v 0.099382 -0.908675 0.099382
v 0.053785 -0.908675 0.129849
v 0.000000 -0.908675 0.140547
v -0.053785 -0.908675 0.129849
v -0.099382 -0.908675 0.099382
v -0.129849 -0.908675 0.053785
v -0.140547 -0.908675 -0.000000
v -0.129849 -0.908675 -0.053785
v -0.099382 -0.908675 -0.099382
v -0.053785 -0.908675 -0.129849
v 0.000000 -0.914596 -0.000000
vt 0.7724 0.5561
vt 0.8541 0.5103
vt 0.8583 0.5496
vt 0.6430 0.4139
vt 0.5529 0.4515
vt 0.5721 0.3882
vt 0.2750 0.9906
vt 0.0363 0.7759
vt 0.0847 0.7406
vt 0.6153 0.6859
vt 0.6657 0.5973
vt 0.6535 0.6915
vt 0.4392 0.2945
vt 0.3623 0.2908
vt 0.3974 0.2408
vt 0.5713 0.8798
vt 0.3623 0.7368
vt 0.5671 0.7872
vt 0.2722 0.5504
vt 0.3031 0.4853
vt 0.3283 0.5204
vt 0.9312 0.6234
vt 0.9382 0.5561
vt 0.5713 0.6875
vt 0.6108 0.7946
vt 0.6492 0.7941
vt 0.3666 0.6860
vt 0.5831 0.5959
vt 0.9295 0.5164
vt 0.7024 0.4195
vt 0.6302 0.4795
vt 0.8804 0.9873
vt 0.9879 0.6402
vt 0.0625 0.0310
vt 0.0289 0.1257
vt 0.0059 0.1114
vt 0.4748 0.4058
vt 0.4079 0.3493
vt 0.8653 0.9829
vt 0.8579 0.6175
vt 0.5384 0.4839
vt 0.7792 0.6234
vt 0.8459 0.9813
vt 0.2001 0.5928
vt 0.1094 0.5994
vt 0.1821 0.5537
vt 0.8250 0.9829
vt 0.7070 0.6402
vt 0.6535 0.8895
vt 0.6153 0.8956
vt 0.1231 0.6412
vt 0.1492 0.6975
vt 0.6215 0.0000
vt 0.6476 0.5103
vt 0.6282 0.5861
vt 0.2198 0.6531
vt 0.2859 0.6142
vt 0.6326 0.0142
vt 0.5005 0.3462
vt 0.6986 0.5337
vt 0.7730 0.5164
vt 0.6489 0.0280
vt 0.0528 0.6882
vt 0.6679 0.0391
vt 0.4647 0.4407
vt 0.7024 0.0474
vt 0.3507 0.1014
vt 0.2913 0.0684
vt 0.2973 0.0336
vt 1.0000 0.5744
vt 0.3108 0.9674
vt 0.8076 0.0798
vt 0.7984 0.0556
vt 0.8076 0.0533
vt 0.2501 0.5136
vt 0.4015 0.3874
vt 0.2921 0.9792
vt 0.6657 0.9631
vt 0.6282 0.9735
vt 0.0595 0.1479
vt 0.1054 0.2463
vt 0.0345 0.2309
vt 0.0823 0.4828
vt 0.0595 0.3977
vt 0.1056 0.4563
vt 0.2310 0.0394
vt 0.2276 0.0000
vt 0.6832 0.7005
vt 0.1658 0.0443
vt 0.1521 0.0057
vt 0.6795 0.7891
vt 0.1056 0.0824
vt 0.0823 0.0498
vt 0.6832 0.8715
vt 0.0430 0.6438
vt 0.1047 0.5717
vt 0.6937 0.9350
vt 0.0000 0.2217
vt 0.1675 0.5323
vt 0.0345 0.3186
vt 0.0000 0.3233
vt 0.2263 0.4977
vt 0.0289 0.4150
vt 0.3415 0.5790
vt 0.3503 0.5992
vt 0.3411 0.5992
vt 0.7848 0.0101
vt 0.7637 0.0117
vt 0.7655 0.0000
vt 0.7105 0.0289
vt 0.7305 0.0200
vt 0.7183 0.0355
vt 0.7024 0.0798
vt 0.7183 0.0976
vt 0.7105 0.1042
vt 0.7446 0.1331
vt 0.7637 0.1214
vt 0.7655 0.1331
vt 0.7996 0.1042
vt 0.7984 0.0775
vt 0.7996 0.0289
vt 0.7796 0.0200
vt 0.7446 0.0000
vt 0.7252 0.0101
vt 0.7024 0.0533
vt 0.7117 0.0775
vt 0.7305 0.1130
vt 0.7252 0.1230
vt 0.7464 0.1214
vt 0.7848 0.1230
vt 0.7918 0.0976
vt 0.7918 0.0355
vt 0.7464 0.0117
vt 0.7117 0.0556
vt 0.7796 0.1130
vt 0.7090 0.2190
vt 0.7212 0.1414
vt 0.7704 0.2345
vt 0.3294 0.5053
vt 0.3372 0.5277
vt 0.3283 0.5271
vt 0.3503 0.6210
vt 0.3411 0.6210
vt 0.3382 0.5480
vt 0.3294 0.5474
vt 0.3415 0.6412
vt 0.3515 0.6566
vt 0.3422 0.6566
vt 0.3507 0.6412
vt 0.3411 0.5637
vt 0.3323 0.5630
vt 0.3535 0.5630
vt 0.3420 0.5436
vt 0.3509 0.5430
vt 0.3308 0.5637
vt 0.3369 0.5838
vt 0.3283 0.5838
vt 0.3411 0.5218
vt 0.3500 0.5212
vt 0.3369 0.6057
vt 0.3283 0.6057
vt 0.3420 0.5015
vt 0.3509 0.5009
vt 0.3394 0.6258
vt 0.3308 0.6258
vt 0.3446 0.4859
vt 0.3535 0.4853
vt 0.3422 0.5636
vt 0.3507 0.5790
vt 0.3323 0.4853
vt 0.3382 0.5060
vt 0.1205 0.1960
vt 0.1805 0.2619
vt 0.3623 0.2061
vt 0.3042 0.2845
vt 0.3042 0.2313
vt 0.1054 0.2996
vt 0.3374 0.1270
vt 0.2891 0.1833
vt 0.1205 0.3476
vt 0.2611 0.1478
vt 0.1485 0.3831
vt 0.2246 0.1302
vt 0.1658 0.4853
vt 0.1850 0.4007
vt 0.1850 0.1332
vt 0.2246 0.3977
vt 0.2310 0.4804
vt 0.1485 0.1563
vt 0.2611 0.3746
vt 0.2913 0.4423
vt 0.3623 0.2938
vt 0.2891 0.3348
vt 0.3374 0.3768
vt 0.2144 0.3049
vt 0.2032 0.3058
vt 0.2093 0.2676
vt 0.2371 0.2577
vt 0.1805 0.2770
vt 0.2327 0.2440
vt 0.1848 0.2907
vt 0.2248 0.2339
vt 0.1928 0.3008
vt 0.2144 0.2289
vt 0.2032 0.2298
vt 0.1928 0.2363
vt 0.2248 0.2984
vt 0.1848 0.2476
vt 0.2327 0.2871
vt 0.2371 0.2728
vt 0.2621 1.0000
vt 0.3634 0.7613
vt 0.3634 0.7103
vt 0.6950 0.4856
vt 0.6114 0.5103
vt 0.8059 0.9873
vt 0.6840 0.5257
vt 0.6937 0.5744
vt 0.6867 0.0459
vt 0.0000 0.7267
vt 0.3283 0.9571
vt 0.6937 0.6191
vt 0.0474 0.6101
vt 0.7825 0.1569
vt 0.7891 0.1770
vt 0.7891 0.1989
vt 0.7825 0.2190
vt 0.7544 0.2428
vt 0.7372 0.2428
vt 0.7212 0.2345
vt 0.7024 0.1989
vt 0.7024 0.1770
vt 0.7090 0.1569
vt 0.7372 0.1331
vt 0.7544 0.1331
vt 0.7704 0.1414
vt 0.3446 0.5636
vt 0.3394 0.5637
vt 0.3515 0.5636
vt 0.3411 0.4860
vn 0.5275 -0.3139 0.7894
vn -0.9242 0.3348 0.1838
vn 0.1693 0.4969 -0.8511
vn 0.9312 -0.3139 -0.1852
vn -0.1838 0.3348 0.9242
vn 0.4821 0.4969 -0.7215
vn -0.9312 -0.3139 -0.1852
vn 0.7835 0.3348 0.5235
vn 0.7215 0.4969 -0.4821
vn 0.7894 -0.3139 -0.5275
vn 0.7835 0.3348 -0.5235
vn 0.8511 0.4969 -0.1693
vn 0.7894 -0.3139 0.5275
vn -0.9242 0.3348 -0.1838
vn 0.8511 0.4969 0.1693
vn -0.1852 -0.3139 0.9312
vn -0.5235 0.3348 0.7835
vn 0.7215 0.4969 0.4821
vn -0.9312 -0.3139 0.1852
vn 0.5235 0.3348 0.7835
vn 0.4821 0.4969 0.7215
vn -0.5275 -0.3139 -0.7894
vn 0.9242 0.3348 -0.1838
vn 0.1693 0.4969 0.8511
vn 0.5275 -0.3139 -0.7894
vn -0.1838 0.3348 -0.9242
vn -0.1693 0.4969 0.8511
vn 0.9312 -0.3139 0.1852
vn -0.7835 0.3348 -0.5235
vn -0.4821 0.4969 0.7215
vn 0.1852 -0.3139 0.9312
vn -0.7835 0.3348 0.5235
vn -0.7215 0.4969 0.4821
vn -0.1852 -0.3139 -0.9312
vn 0.1838 0.3348 0.9242
vn -0.8511 0.4969 0.1693
vn -0.7894 -0.3139 0.5275
vn 0.1838 0.3348 -0.9242
vn -0.8511 0.4969 -0.1693
vn -0.6309 -0.7657 -0.1255
vn 0.9242 0.3348 0.1838
vn -0.7215 0.4969 -0.4821
vn 0.0872 0.9945 0.0583
vn -0.7894 -0.3139 -0.5275
vn -0.4821 0.4969 -0.7215
vn -0.5275 -0.3139 0.7894
vn -0.5235 0.3348 -0.7835
vn -0.1693 0.4969 -0.8511
vn 0.5235 0.3348 -0.7835
vn 0.1852 -0.3139 -0.9312
vn 0.0474 -0.9700 0.2384
vn 0.6309 -0.7657 0.1255
vn -0.6309 -0.7657 0.1255
vn 0.6309 -0.7657 -0.1255
vn -0.5348 -0.7657 0.3574
vn 0.5348 -0.7657 -0.3574
vn -0.3574 -0.7657 0.5348
vn 0.3574 -0.7657 -0.5348
vn -0.1255 -0.7657 0.6309
vn -0.1255 -0.7657 -0.6309
vn 0.1255 -0.7657 -0.6309
vn 0.1255 -0.7657 0.6309
vn -0.3574 -0.7657 -0.5348
vn 0.3574 -0.7657 0.5348
vn -0.5348 -0.7657 -0.3574
vn 0.5348 -0.7657 0.3574
vn -0.8315 0.0000 -0.5556
vn -0.0205 0.9945 0.1029
vn -0.1029 0.9945 0.0205
vn -0.0583 0.9945 -0.0872
vn 0.0583 0.9945 -0.0872
vn 0.1029 0.9945 0.0205
vn 0.0205 0.9945 0.1029
vn -0.0872 0.9945 0.0583
vn -0.0872 0.9945 -0.0583
vn -0.0205 0.9945 -0.1029
vn 0.0205 0.9945 -0.1029
vn 0.1029 0.9945 -0.0205
vn 0.0583 0.9945 0.0872
vn -0.0583 0.9945 0.0872
vn -0.1029 0.9945 -0.0205
vn 0.0872 0.9945 -0.0583
vn 0.0000 1.0000 0.0000
vn 0.5556 0.0000 0.8315
vn -0.5556 0.0000 -0.8315
vn 0.1951 0.0000 0.9808
vn 0.1951 0.0000 -0.9808
vn -0.1951 0.0000 -0.9808
vn -0.1951 0.0000 0.9808
vn 0.5556 0.0000 -0.8315
vn -0.5556 0.0000 0.8315
vn 0.8315 0.0000 -0.5556
vn -0.8315 0.0000 0.5556
vn 0.9808 0.0000 -0.1951
vn -0.9808 0.0000 0.1951
vn 0.9808 0.0000 0.1951
vn -0.9808 0.0000 -0.1951
vn 0.8315 0.0000 0.5556
vn 0.0273 -0.9902 0.1370
vn -0.1350 -0.9700 -0.2021
vn 0.1350 -0.9700 0.2021
vn -0.2021 -0.9700 -0.1350
vn 0.2021 -0.9700 0.1350
vn -0.2384 -0.9700 -0.0474
vn 0.2384 -0.9700 0.0474
vn -0.2384 -0.9700 0.0474
vn 0.2384 -0.9700 -0.0474
vn -0.2021 -0.9700 0.1350
vn 0.2021 -0.9700 -0.1350
vn -0.1350 -0.9700 0.2021
vn 0.1350 -0.9700 -0.2021
vn -0.0474 -0.9700 0.2384
vn -0.0474 -0.9700 -0.2384
vn 0.0474 -0.9700 -0.2384
vn 0.0357 -0.9991 -0.0238
vn -0.0776 -0.9902 -0.1162
vn 0.0776 -0.9902 0.1162
vn -0.1162 -0.9902 -0.0776
vn 0.1162 -0.9902 0.0776
vn -0.1370 -0.9902 -0.0273
vn 0.1370 -0.9902 0.0273
vn -0.1370 -0.9902 0.0273
vn 0.1370 -0.9902 -0.0273
vn -0.1162 -0.9902 0.0776
vn 0.1162 -0.9902 -0.0776
vn -0.0776 -0.9902 0.1162
vn 0.0776 -0.9902 -0.1162
vn -0.0273 -0.9902 0.1370
vn -0.0273 -0.9902 -0.1370
vn 0.0273 -0.9902 -0.1370
vn -0.0238 -0.9991 0.0357
vn 0.0238 -0.9991 -0.0357
vn -0.0084 -0.9991 0.0421
vn -0.0084 -0.9991 -0.0421
vn 0.0084 -0.9991 -0.0421
vn 0.0084 -0.9991 0.0421
vn -0.0238 -0.9991 -0.0357
vn 0.0238 -0.9991 0.0357
vn -0.0357 -0.9991 -0.0238
vn 0.0357 -0.9991 0.0238
vn -0.0421 -0.9991 -0.0084
vn 0.0421 -0.9991 0.0084
vn -0.0421 -0.9991 0.0084
vn 0.0421 -0.9991 -0.0084
vn -0.0357 -0.9991 0.0238
s off
f 40/1/1 55/2/1 39/3/1
f 27/4/2 44/5/2 25/6/2
f 4/7/3 5/8/3 3/9/3
f 36/10/4 53/11/4 52/12/4
f 21/13/5 41/14/5 19/15/5
f 5/16/6 8/17/6 7/18/6
f 46/19/7 61/20/7 45/21/7
f 13/22/8 39/3/8 38/23/8
f 8/17/9 9/24/9 7/18/9
f 35/25/10 52/12/10 51/26/10
f 9/24/11 35/25/11 7/18/11
f 9/24/12 12/27/12 11/28/12
f 38/23/13 55/2/13 54/29/13
f 29/30/14 45/31/14 27/4/14
f 12/32/15 13/22/15 11/33/15
f 42/34/16 57/35/16 41/36/16
f 21/13/17 43/37/17 42/38/17
f 14/39/18 15/40/18 13/22/18
f 45/31/19 60/41/19 44/5/19
f 17/42/20 39/3/20 15/40/20
f 16/43/21 17/42/21 15/40/21
f 47/44/22 64/45/22 63/46/22
f 11/28/23 36/10/23 9/24/23
f 18/47/24 19/48/24 17/42/24
f 35/25/25 49/49/25 1/50/25
f 3/9/26 48/51/26 33/52/26
f 20/53/27 21/13/27 19/15/27
f 38/54/28 53/11/28 37/55/28
f 31/56/29 46/19/29 29/57/29
f 22/58/30 23/59/30 21/13/30
f 40/1/31 57/60/31 56/61/31
f 25/6/32 43/37/32 23/59/32
f 24/62/33 25/6/33 23/59/33
f 2/63/34 64/45/34 48/51/34
f 19/48/35 40/1/35 17/42/35
f 26/64/36 27/4/36 25/6/36
f 44/5/37 59/65/37 43/37/37
f 5/8/38 2/63/38 3/9/38
f 27/4/39 30/66/39 29/30/39
f 62/67/40 77/68/40 61/69/40
f 11/33/41 38/23/41 37/70/41
f 29/57/42 32/71/42 31/56/42
f 14/72/43 87/73/43 16/74/43
f 47/44/44 62/75/44 46/19/44
f 32/71/45 33/52/45 31/56/45
f 43/37/46 58/76/46 42/38/46
f 33/52/47 47/44/47 31/56/47
f 34/77/48 3/9/48 33/52/48
f 5/16/49 35/25/49 1/50/49
f 1/50/50 50/78/50 2/79/50
f 73/80/51 120/81/51 72/82/51
f 53/83/52 70/84/52 69/85/52
f 61/69/53 76/86/53 60/87/53
f 53/11/54 68/88/54 52/12/54
f 60/87/55 75/89/55 59/90/55
f 52/12/56 67/91/56 51/26/56
f 59/90/57 74/92/57 58/93/57
f 51/26/58 65/94/58 49/49/58
f 58/93/59 73/80/59 57/35/59
f 50/95/60 80/96/60 64/45/60
f 49/49/61 66/97/61 50/78/61
f 57/35/62 72/82/62 56/98/62
f 64/45/63 79/99/63 63/46/63
f 56/98/64 71/100/64 55/101/64
f 63/46/65 78/102/65 62/75/65
f 55/101/66 70/84/66 54/103/66
f 94/104/67 111/105/67 95/106/67
f 20/107/68 90/108/68 22/109/68
f 28/110/69 92/111/69 93/112/69
f 32/113/70 96/114/70 34/115/70
f 6/116/71 83/117/71 8/118/71
f 12/119/72 86/120/72 14/72/72
f 18/121/73 89/122/73 20/107/73
f 24/123/74 92/111/74 26/124/74
f 30/125/75 95/126/75 32/113/75
f 34/115/76 81/127/76 4/128/76
f 6/116/77 81/127/77 82/129/77
f 10/130/78 85/131/78 12/119/78
f 16/74/79 88/132/79 18/121/79
f 22/109/80 91/133/80 24/123/80
f 28/110/81 94/134/81 30/125/81
f 10/130/82 83/117/82 84/135/82
f 107/136/83 103/137/83 111/138/83
f 87/139/84 104/140/84 88/141/84
f 95/106/85 112/142/85 96/143/85
f 88/141/86 105/144/86 89/145/86
f 81/146/87 98/147/87 82/148/87
f 96/143/88 97/149/88 81/146/88
f 89/145/89 106/150/89 90/151/89
f 82/152/90 99/153/90 83/154/90
f 90/155/91 107/156/91 91/157/91
f 83/154/92 100/158/92 84/159/92
f 91/157/93 108/160/93 92/161/93
f 84/159/94 101/162/94 85/163/94
f 92/161/95 109/164/95 93/165/95
f 85/163/96 102/166/96 86/167/96
f 93/168/97 110/169/97 94/104/97
f 86/170/98 103/171/98 87/139/98
f 121/172/99 136/173/99 120/81/99
f 79/174/100 128/175/100 127/176/100
f 71/100/101 120/81/101 119/177/101
f 78/178/102 127/176/102 126/179/102
f 70/84/103 119/177/103 118/180/103
f 77/68/104 126/179/104 125/181/104
f 70/84/105 117/182/105 69/85/105
f 77/68/106 124/183/106 76/86/106
f 68/184/107 117/182/107 116/185/107
f 76/86/108 123/186/108 75/89/108
f 68/184/109 115/187/109 67/188/109
f 75/89/110 122/189/110 74/92/110
f 67/188/111 113/190/111 65/191/111
f 73/80/112 122/189/112 121/172/112
f 80/192/113 114/193/113 128/175/113
f 65/191/114 114/193/114 66/194/114
f 131/195/115 132/196/115 145/197/115
f 128/175/116 143/198/116 127/176/116
f 120/81/117 135/199/117 119/177/117
f 127/176/118 142/200/118 126/179/118
f 119/177/119 134/201/119 118/180/119
f 126/179/120 141/202/120 125/181/120
f 117/182/121 134/201/121 133/203/121
f 124/183/122 141/202/122 140/204/122
f 117/182/123 132/196/123 116/185/123
f 123/186/124 140/204/124 139/205/124
f 116/185/125 131/195/125 115/187/125
f 123/186/126 138/206/126 122/189/126
f 115/187/127 129/207/127 113/190/127
f 122/189/128 137/208/128 121/172/128
f 128/175/129 130/209/129 144/210/129
f 113/190/130 130/209/130 114/193/130
f 138/206/131 139/205/131 145/197/131
f 129/207/132 131/195/132 145/197/132
f 137/208/133 138/206/133 145/197/133
f 144/210/134 130/209/134 145/197/134
f 130/209/135 129/207/135 145/197/135
f 136/173/136 137/208/136 145/197/136
f 143/198/137 144/210/137 145/197/137
f 135/199/138 136/173/138 145/197/138
f 142/200/139 143/198/139 145/197/139
f 134/201/140 135/199/140 145/197/140
f 141/202/141 142/200/141 145/197/141
f 133/203/142 134/201/142 145/197/142
f 140/204/143 141/202/143 145/197/143
f 132/196/144 133/203/144 145/197/144
f 139/205/145 140/204/145 145/197/145
f 40/1/1 56/61/1 55/2/1
f 27/4/2 45/31/2 44/5/2
f 4/7/3 6/211/3 5/8/3
f 36/10/4 37/55/4 53/11/4
f 21/13/5 42/38/5 41/14/5
f 5/16/6 6/212/6 8/17/6
f 46/19/7 62/75/7 61/20/7
f 13/22/8 15/40/8 39/3/8
f 8/17/9 10/213/9 9/24/9
f 35/25/10 36/10/10 52/12/10
f 9/24/11 36/10/11 35/25/11
f 9/24/12 10/213/12 12/27/12
f 38/23/13 39/3/13 55/2/13
f 29/30/14 46/214/14 45/31/14
f 12/32/15 14/39/15 13/22/15
f 42/34/16 58/93/16 57/35/16
f 21/13/17 23/59/17 43/37/17
f 14/39/18 16/43/18 15/40/18
f 45/31/19 61/215/19 60/41/19
f 17/42/20 40/1/20 39/3/20
f 16/43/21 18/47/21 17/42/21
f 47/44/22 48/51/22 64/45/22
f 11/28/23 37/55/23 36/10/23
f 18/47/24 20/216/24 19/48/24
f 35/25/25 51/26/25 49/49/25
f 3/9/26 2/63/26 48/51/26
f 20/53/27 22/58/27 21/13/27
f 38/54/28 54/217/28 53/11/28
f 31/56/29 47/44/29 46/19/29
f 22/58/30 24/62/30 23/59/30
f 40/1/31 41/218/31 57/60/31
f 25/6/32 44/5/32 43/37/32
f 24/62/33 26/64/33 25/6/33
f 2/63/34 50/95/34 64/45/34
f 19/48/35 41/218/35 40/1/35
f 26/64/36 28/219/36 27/4/36
f 44/5/37 60/41/37 59/65/37
f 5/8/38 1/220/38 2/63/38
f 27/4/39 28/219/39 30/66/39
f 62/67/40 78/178/40 77/68/40
f 11/33/41 13/22/41 38/23/41
f 29/57/42 30/221/42 32/71/42
f 14/72/43 86/120/43 87/73/43
f 47/44/44 63/46/44 62/75/44
f 32/71/45 34/77/45 33/52/45
f 43/37/46 59/65/46 58/76/46
f 33/52/47 48/51/47 47/44/47
f 34/77/48 4/7/48 3/9/48
f 5/16/49 7/18/49 35/25/49
f 1/50/50 49/49/50 50/78/50
f 73/80/51 121/172/51 120/81/51
f 53/83/52 54/103/52 70/84/52
f 61/69/53 77/68/53 76/86/53
f 53/11/54 69/222/54 68/88/54
f 60/87/55 76/86/55 75/89/55
f 52/12/56 68/88/56 67/91/56
f 59/90/57 75/89/57 74/92/57
f 51/26/58 67/91/58 65/94/58
f 58/93/59 74/92/59 73/80/59
f 50/95/60 66/223/60 80/96/60
f 49/49/61 65/94/61 66/97/61
f 57/35/62 73/80/62 72/82/62
f 64/45/63 80/96/63 79/99/63
f 56/98/64 72/82/64 71/100/64
f 63/46/65 79/99/65 78/102/65
f 55/101/66 71/100/66 70/84/66
f 94/104/67 110/169/67 111/105/67
f 20/107/68 89/122/68 90/108/68
f 28/110/69 26/124/69 92/111/69
f 32/113/70 95/126/70 96/114/70
f 6/116/71 82/129/71 83/117/71
f 12/119/72 85/131/72 86/120/72
f 18/121/73 88/132/73 89/122/73
f 24/123/74 91/133/74 92/111/74
f 30/125/75 94/134/75 95/126/75
f 34/115/76 96/114/76 81/127/76
f 6/116/77 4/128/77 81/127/77
f 10/130/78 84/135/78 85/131/78
f 16/74/79 87/73/79 88/132/79
f 22/109/80 90/108/80 91/133/80
f 28/110/81 93/112/81 94/134/81
f 10/130/82 8/118/82 83/117/82
f 99/224/83 98/225/83 111/138/83
f 97/226/83 112/227/83 111/138/83
f 111/138/83 110/228/83 109/229/83
f 109/229/83 108/230/83 107/136/83
f 107/136/83 106/231/83 105/232/83
f 105/232/83 104/233/83 103/137/83
f 103/137/83 102/234/83 101/235/83
f 101/235/83 100/236/83 103/137/83
f 98/225/83 97/226/83 111/138/83
f 111/138/83 109/229/83 107/136/83
f 107/136/83 105/232/83 103/137/83
f 103/137/83 100/236/83 99/224/83
f 99/224/83 111/138/83 103/137/83
f 87/139/84 103/171/84 104/140/84
f 95/106/85 111/105/85 112/142/85
f 88/141/86 104/140/86 105/144/86
f 81/146/87 97/149/87 98/147/87
f 96/143/88 112/142/88 97/149/88
f 89/145/89 105/144/89 106/150/89
f 82/152/90 98/237/90 99/153/90
f 90/155/91 106/238/91 107/156/91
f 83/154/92 99/153/92 100/158/92
f 91/157/93 107/156/93 108/160/93
f 84/159/94 100/158/94 101/162/94
f 92/161/95 108/160/95 109/164/95
f 85/163/96 101/162/96 102/166/96
f 93/168/97 109/239/97 110/169/97
f 86/170/98 102/240/98 103/171/98
f 121/172/99 137/208/99 136/173/99
f 79/174/100 80/192/100 128/175/100
f 71/100/101 72/82/101 120/81/101
f 78/178/102 79/174/102 127/176/102
f 70/84/103 71/100/103 119/177/103
f 77/68/104 78/178/104 126/179/104
f 70/84/105 118/180/105 117/182/105
f 77/68/106 125/181/106 124/183/106
f 68/184/107 69/85/107 117/182/107
f 76/86/108 124/183/108 123/186/108
f 68/184/109 116/185/109 115/187/109
f 75/89/110 123/186/110 122/189/110
f 67/188/111 115/187/111 113/190/111
f 73/80/112 74/92/112 122/189/112
f 80/192/113 66/194/113 114/193/113
f 65/191/114 113/190/114 114/193/114
f 128/175/116 144/210/116 143/198/116
f 120/81/117 136/173/117 135/199/117
f 127/176/118 143/198/118 142/200/118
f 119/177/119 135/199/119 134/201/119
f 126/179/120 142/200/120 141/202/120
f 117/182/121 118/180/121 134/201/121
f 124/183/122 125/181/122 141/202/122
f 117/182/123 133/203/123 132/196/123
f 123/186/124 124/183/124 140/204/124
f 116/185/125 132/196/125 131/195/125
f 123/186/126 139/205/126 138/206/126
f 115/187/127 131/195/127 129/207/127
f 122/189/128 138/206/128 137/208/128
f 128/175/129 114/193/129 130/209/129
f 113/190/130 129/207/130 130/209/130
